<?xml version="1.0" encoding="utf-8"?>
<!-- Generator: Adobe Illustrator 24.2.3, SVG Export Plug-In . SVG Version: 6.00 Build 0)  -->
<svg version="1.1" id="Réteg_1" xmlns="http://www.w3.org/2000/svg" xmlns:xlink="http://www.w3.org/1999/xlink" x="0px" y="0px"
	 viewBox="0 0 572 56" style="enable-background:new 0 0 572 56;" xml:space="preserve">
<style type="text/css">
	.st0{fill:#101010;}
	.st1{fill:#E63457;}
	.st2{fill:#FFFFFF;}
	.st3{fill:none;stroke:#FFFFFF;stroke-width:0.52;stroke-miterlimit:10;}
</style>
<path class="st0" d="M433.2,43V14.4c0-0.4,0.3-0.7,0.7-0.7l0,0H452c0.4,0,0.7,0.3,0.7,0.6c0,0,0,0,0,0.1V15c0,0.4-0.3,0.7-0.7,0.7
	l0,0h-16.7v11.9h14c0.4,0,0.7,0.3,0.7,0.7l0,0v0.5c0,0.4-0.3,0.7-0.6,0.7c0,0,0,0-0.1,0h-14V43c0,0.5-0.1,0.7-0.7,0.7h-0.8
	C433.4,43.7,433.2,43.5,433.2,43z"/>
<path class="st0" d="M459.5,44.1c-1.9,0-3.7-0.7-5.1-2c-0.6-0.6-1.2-1.3-1.5-2.1c-0.4-0.8-0.6-1.8-0.5-2.7c0-0.9,0.2-1.8,0.7-2.6
	s1.1-1.5,1.9-2c0.9-0.6,1.9-1.1,2.9-1.4c1.1-0.3,2.3-0.5,3.5-0.5c2.4,0,4.7,0.3,7,1v-2c0.1-1.8-0.5-3.6-1.8-5
	c-1.3-1.2-3-1.9-4.8-1.8c-1.2,0-2.3,0.3-3.4,0.7c-1,0.4-2.1,0.9-3,1.5c-0.3,0.2-0.8,0.2-1-0.2l0,0c-0.1-0.1-0.1-0.2-0.2-0.3
	c-0.2-0.3-0.1-0.7,0.2-0.8c2.2-1.5,4.8-2.4,7.5-2.5c2.3-0.1,4.6,0.7,6.3,2.3c1.6,1.7,2.4,4,2.3,6.4v10.7c-0.1,0.4,0.1,0.8,0.5,1
	c0.3,0.1,0.5,0.3,0.5,0.6v0.7c0,0.4-0.3,0.7-0.6,0.7h-0.2c-0.5,0-1-0.2-1.4-0.6c-0.3-0.4-0.5-0.9-0.6-1.4v-1.4
	c-1.1,1.2-2.4,2-3.9,2.5C463,43.7,461.2,44.1,459.5,44.1z M459.9,42.4c1.5,0,3.1-0.3,4.5-0.9c1.3-0.5,2.3-1.4,3.2-2.5
	c0.4-0.5,0.6-1.1,0.7-1.7v-3.9c-1-0.4-2.1-0.7-3.2-0.9s-2.3-0.3-3.4-0.3c-1,0-2,0.1-3,0.4c-0.8,0.2-1.6,0.5-2.3,1
	c-0.6,0.4-1.1,0.9-1.5,1.5s-0.5,1.3-0.5,2s0.1,1.4,0.4,2.1c0.3,0.6,0.7,1.2,1.2,1.7s1.1,0.8,1.8,1.1
	C458.4,42.3,459.1,42.4,459.9,42.4L459.9,42.4z"/>
<path class="st0" d="M475.2,32.6c0-1.5,0.3-3,0.8-4.4c0.5-1.3,1.3-2.6,2.2-3.6c2-2.1,4.8-3.3,7.8-3.3c1.8,0,3.7,0.4,5.3,1.4
	c1.2,0.7,2.3,1.8,3,3c0.2,0.3,0.1,0.7-0.2,0.9c0,0-0.1,0.1-0.2,0.1l-0.8,0.3c-0.3,0.1-0.7,0-0.8-0.3c-0.6-1-1.5-1.8-2.5-2.4
	c-1.2-0.7-2.6-1-4-1c-1.2,0-2.3,0.2-3.4,0.7c-1,0.5-2,1.2-2.7,2c-0.8,0.9-1.4,1.9-1.8,3c-1.4,3.6-0.7,7.6,1.9,10.5
	c0.8,0.9,1.7,1.6,2.8,2c1.8,0.8,3.8,1,5.6,0.4c0.7-0.2,1.4-0.5,2.1-0.9c0.6-0.4,1.2-0.8,1.8-1.3c0.3-0.3,0.5-0.6,0.7-1
	c0.1-0.3,0.5-0.5,0.8-0.4c0.2,0,0.6,0.2,0.7,0.2c0.4,0.1,0.6,0.5,0.5,0.9c0,0,0,0.1-0.1,0.1c-0.3,0.5-0.6,0.9-0.9,1.4
	c-0.6,0.7-1.3,1.2-2,1.7c-0.8,0.5-1.7,0.9-2.6,1.1c-1,0.3-2,0.4-3,0.4c-1.5,0-3-0.3-4.3-0.9c-1.3-0.6-2.5-1.4-3.4-2.5
	C476.3,38.5,475.2,35.6,475.2,32.6L475.2,32.6z"/>
<path class="st0" d="M509,42.9c-0.3,0.2-0.7,0.3-1,0.4c-0.4,0.2-0.9,0.3-1.4,0.4c-0.5,0.1-1.1,0.2-1.6,0.2c-0.6,0-1.1-0.1-1.7-0.3
	c-0.5-0.2-0.9-0.4-1.3-0.8c-0.4-0.3-0.7-0.8-0.9-1.2c-0.2-0.5-0.4-1.1-0.3-1.7V23.4h-2.4c-0.4,0-0.7-0.3-0.7-0.7c0,0,0,0,0-0.1v-0.3
	c0-0.4,0.3-0.7,0.6-0.7l0,0h2.4v-6.8c0-0.4,0.3-0.7,0.6-0.7l0,0h0.9c0.3,0,0.6,0.3,0.6,0.7l0,0v6.8h4.4c0.4,0,0.7,0.3,0.7,0.7v0.1
	v0.2c0,0.4-0.2,0.7-0.6,0.7l0,0h-4.5v16.1c0,0.7,0.3,1.4,0.8,1.8c0.6,0.4,1.2,0.6,1.9,0.6c0.8,0,1.5-0.1,2.3-0.4l0.5-0.2
	c0.3-0.2,0.7-0.1,0.9,0.2v0.1l0.1,0.4C509.5,42.4,509.4,42.8,509,42.9z"/>
<path class="st0" d="M522,44.1c-1.5,0-2.9-0.3-4.3-0.9c-1.3-0.6-2.4-1.4-3.4-2.5s-1.7-2.3-2.2-3.6c-0.5-1.4-0.8-2.9-0.8-4.3
	c0-3,1.1-5.8,3.1-8c1-1,2.1-1.9,3.4-2.5c1.3-0.6,2.8-0.9,4.3-0.9s2.9,0.3,4.2,0.9s2.4,1.4,3.4,2.5s1.8,2.3,2.3,3.6
	c1.7,4.2,0.8,9-2.3,12.4c-1,1-2.1,1.9-3.4,2.5C524.9,43.8,523.5,44.1,522,44.1z M513.4,32.8c0,1.2,0.2,2.5,0.7,3.7
	c0.4,1.1,1,2.1,1.8,3c0.8,0.8,1.7,1.5,2.7,2c2.1,1,4.6,1,6.7,0c1-0.5,2-1.2,2.8-2c2.5-2.9,3.2-6.9,1.9-10.5c-0.4-1.1-1.1-2.1-1.9-3
	c-0.8-0.8-1.7-1.5-2.7-2s-2.2-0.8-3.3-0.8c-1.2,0-2.3,0.3-3.3,0.8s-2,1.2-2.7,2c-0.8,0.9-1.4,1.9-1.9,3.1
	C513.6,30.2,513.4,31.5,513.4,32.8z"/>
<path class="st0" d="M547.6,23.6c-3.6,0.3-6.7,2.8-7.6,6.3V43c0,0.4-0.2,0.7-0.6,0.7h-0.1h-0.7c-0.4,0-0.7-0.3-0.7-0.6V43V22.4
	c0-0.4,0.3-0.7,0.6-0.7c0,0,0,0,0.1,0h0.7c0.4,0,0.7,0.3,0.7,0.6c0,0,0,0,0,0.1v4c0.8-1.2,1.8-2.3,3-3.1c1.1-0.9,2.5-1.5,4-1.7
	c0.2,0,0.4,0,0.6,0c0.4,0,0.7,0.3,0.7,0.7V23C548.2,23.3,547.9,23.6,547.6,23.6z"/>
<path class="st0" d="M553.7,51.8c0-0.4,0.3-0.7,0.6-0.7s0.5,0,0.8,0c0.2,0,0.5-0.1,0.7-0.2c0.2-0.1,0.3-0.2,0.5-0.4
	c0.2-0.3,0.4-0.6,0.6-1c0.3-0.5,0.6-1.2,1-2.1l1.6-3.8l-9.4-21c-0.1-0.2,0-0.4,0.1-0.6c0.2-0.2,0.4-0.3,0.7-0.3h0.5
	c0.3,0,0.6,0.2,0.7,0.4l8.6,19.5l8-19.5V22c0.1-0.2,0.3-0.3,0.5-0.3h0.7c0.3,0,0.6,0.3,0.6,0.6c0,0.1,0,0.2,0,0.3l-11.7,28
	c-0.3,0.8-0.8,1.4-1.5,1.8c-0.9,0.5-1.8,0.7-2.8,0.7c-0.4,0.1-0.7-0.2-0.8-0.6v-0.1L553.7,51.8z"/>
<path class="st0" d="M260.3,42.5V14.9c0-0.4,0.3-0.8,0.8-0.8h3.1c0.4,0,0.8,0.3,0.8,0.8v27.6c0,0.4-0.3,0.8-0.8,0.8H261
	C260.6,43.2,260.3,42.9,260.3,42.5z"/>
<path class="st0" d="M278.4,43.7c-1.4,0-2.7-0.3-4-0.9c-1.2-0.6-2.3-1.4-3.2-2.4c-0.9-1-1.6-2.2-2.1-3.5c-1-2.8-1-5.8,0-8.6
	c0.4-1.2,1-2.4,1.9-3.4s2-1.8,3.2-2.4c1.6-0.6,3.2-1,4.9-1c2.4-0.2,4.7,0.7,6.5,2.3v-9.6c0-0.4,0.4-0.8,0.8-0.8h2.9
	c0.4,0,0.8,0.4,0.8,0.8V38c0,0.4,0.1,0.8,0.3,1.1c0.1,0.1,0.2,0.2,0.4,0.3c0.3,0.1,0.6,0.4,0.6,0.8v2.5c0,0.4-0.3,0.8-0.7,0.8h-0.4
	c-0.3,0-0.5,0-0.7,0c-1,0.1-1.9-0.3-2.5-1c-0.4-0.4-0.6-1-0.6-1.5v-0.2c-0.8,0.8-1.8,1.5-2.8,2C282,43.4,280.2,43.8,278.4,43.7z
	 M279.5,39.8c0.7,0,1.4-0.1,2-0.3s1.3-0.5,1.8-0.9s1-0.8,1.4-1.4c0.4-0.5,0.8-1.5,0.8-3.9v-3.9c-0.2-0.6-0.4-1.1-0.8-1.5
	c-1.3-1.7-3.4-2.7-5.5-2.7c-0.9,0-1.7,0.2-2.5,0.6s-1.4,1-2,1.6c-0.6,0.7-1,1.5-1.3,2.3c-0.3,0.9-0.5,1.8-0.5,2.7
	c0,1,0.2,1.9,0.5,2.8c0.3,0.8,0.8,1.6,1.4,2.3c0.6,0.6,1.2,1.2,2,1.6C277.8,39.6,278.7,39.8,279.5,39.8L279.5,39.8z"/>
<path class="st0" d="M304.7,43.7c-1.6,0-3.1-0.3-4.5-0.9c-1.3-0.6-2.5-1.4-3.5-2.4s-1.7-2.2-2.3-3.5c-0.5-1.4-0.8-2.8-0.8-4.3
	s0.3-2.9,0.8-4.3c0.5-1.3,1.3-2.5,2.3-3.6c1-1,2.2-1.9,3.5-2.4c1.5-0.6,3-0.9,4.6-0.9s3.1,0.3,4.5,0.9c1.3,0.6,2.5,1.4,3.5,2.4
	s1.7,2.2,2.2,3.5s0.8,2.7,0.8,4.2c0,0.3,0,0.6,0,0.9c-0.1,0.4-0.4,0.7-0.8,0.7h-16.5c0.1,0.9,0.3,1.8,0.7,2.6c0.4,0.7,0.8,1.4,1.4,2
	s1.3,1,2,1.3c0.8,0.3,1.6,0.5,2.4,0.5c0.6,0,1.2-0.1,1.8-0.2c0.6-0.1,1.1-0.4,1.6-0.7s0.9-0.6,1.3-1c0.2-0.2,0.4-0.5,0.6-0.8
	s0.6-0.5,1-0.4c0.6,0.2,2.2,0.6,2.2,0.6c0.4,0.1,0.6,0.5,0.5,0.9c0,0.1,0,0.1-0.1,0.2c-0.8,1.3-1.9,2.4-3.2,3.1
	C308.9,43.2,306.8,43.7,304.7,43.7z M311.2,30.9c-0.1-0.9-0.3-1.7-0.7-2.5c-0.3-0.7-0.8-1.4-1.4-2c-0.6-0.5-1.3-1-2-1.3
	c-0.8-0.3-1.6-0.5-2.4-0.5s-1.6,0.1-2.4,0.5c-0.7,0.3-1.4,0.7-2,1.3c-0.6,0.6-1.1,1.2-1.4,2c-0.4,0.8-0.6,1.6-0.7,2.5H311.2z"/>
<path class="st0" d="M325.1,43.7c-1,0-2-0.2-2.9-0.5s-1.6-0.8-2.3-1.4c-0.6-0.6-1.2-1.3-1.5-2.1c-0.4-0.8-0.6-1.8-0.5-2.7
	c0-1,0.2-1.9,0.7-2.8c0.4-0.9,1.1-1.6,1.9-2.2c0.9-0.6,1.8-1.1,2.9-1.4c1.2-0.4,2.4-0.6,3.7-0.6c1.9,0,3.8,0.2,5.7,0.7v-1.1
	c0.1-1.3-0.4-2.6-1.4-3.6c-1.1-0.9-2.5-1.4-3.9-1.3c-1.2,0-2.3,0.2-3.4,0.6c-0.9,0.4-1.8,0.8-2.7,1.4c-0.4,0.2-0.9,0.1-1.1-0.4
	c0,0,0,0,0-0.1l-0.7-1.4c-0.2-0.4,0-0.8,0.3-1c2.4-1.5,5.2-2.4,8-2.4c2.5-0.2,5,0.7,6.9,2.3c1.7,1.7,2.6,4.1,2.5,6.5V38
	c0,0.7,0.2,1.2,0.7,1.4c0.3,0.1,0.5,0.4,0.5,0.8v2.5c0,0.4-0.3,0.8-0.7,0.8h-0.4c-0.3,0-0.6,0-0.9,0c-0.7,0-1.4-0.2-2-0.7
	c-0.5-0.4-0.8-1-0.9-1.7V41c-0.8,0.7-1.8,1.2-2.8,1.7C328.8,43.3,327,43.7,325.1,43.7z M326.3,40.3c1.1,0,2.1-0.2,3.1-0.6
	c0.9-0.4,1.7-0.9,2.3-1.7c0.6-0.8,0.9-1.7,0.9-2.6v-1.8c-0.8-0.3-1.6-0.5-2.4-0.7s-1.7-0.2-2.5-0.3c-1.4-0.1-2.8,0.3-4,1
	c-1,0.6-1.6,1.6-1.5,2.8c0,1,0.4,2,1.2,2.7C324.1,40,325.2,40.4,326.3,40.3L326.3,40.3z"/>
<path class="st0" d="M342.3,33.3v-2.6c0-0.4,0.3-0.8,0.8-0.8h10.8c0.4,0,0.8,0.3,0.8,0.8v2.6c0,0.4-0.3,0.8-0.8,0.8h-10.8
	C342.7,34.1,342.3,33.7,342.3,33.3z"/>
<path class="st0" d="M376.9,20.3l-0.5-0.3c-0.6-0.4-1.2-0.7-1.8-1c-0.7-0.3-1.5-0.6-2.3-0.7c-0.8-0.2-1.7-0.3-2.6-0.3
	c-1.5-0.1-3,0.3-4.3,1.1c-0.9,0.7-1.4,1.8-1.4,3c0,0.6,0.1,1.2,0.4,1.7s0.8,0.9,1.3,1.2c0.7,0.4,1.5,0.7,2.3,0.9
	c0.9,0.3,2,0.5,3.2,0.8c1.4,0.3,2.7,0.7,4,1.2c1.1,0.4,2.1,0.9,3,1.6c0.8,0.6,1.5,1.4,1.9,2.3c0.5,1,0.7,2.2,0.7,3.3
	c0,1.3-0.3,2.6-0.9,3.8c-0.5,1-1.3,1.9-2.3,2.6c-1,0.7-2.2,1.2-3.4,1.5c-1.4,0.3-2.7,0.5-4.1,0.5c-2.2,0-4.3-0.3-6.4-1
	c-1.8-0.6-3.5-1.5-5.1-2.6c-0.3-0.2-0.4-0.7-0.2-1c0,0,1-1.8,1.3-2.5c0.2-0.4,0.8-0.5,1.2-0.3c0,0,0.1,0,0.1,0.1
	c0.2,0.2,0.5,0.4,0.8,0.5c0.7,0.5,1.5,0.9,2.3,1.2c0.9,0.4,1.9,0.7,2.9,1c1.1,0.3,2.1,0.4,3.2,0.4c1.5,0.1,2.9-0.2,4.2-0.9
	c1-0.6,1.5-1.7,1.5-2.8c0-0.7-0.2-1.3-0.5-1.8c-0.4-0.5-1-1-1.6-1.3c-0.8-0.4-1.6-0.7-2.5-1c-1-0.3-2.1-0.6-3.4-0.9
	s-2.6-0.7-3.8-1.2c-1-0.4-1.9-0.9-2.7-1.5c-0.7-0.6-1.2-1.3-1.6-2.1c-0.4-0.9-0.6-1.9-0.5-2.9c0-1.3,0.3-2.6,0.8-3.8
	c0.5-1.1,1.3-2,2.2-2.8c1-0.8,2.1-1.4,3.3-1.7c1.4-0.4,2.8-0.6,4.2-0.6c1.9,0,3.7,0.3,5.5,0.9c1.3,0.5,2.6,1.1,3.8,1.9
	c0.3,0.2,0.4,0.7,0.2,1c0,0-0.9,1.7-1.3,2.3C377.9,20.5,377.3,20.6,376.9,20.3L376.9,20.3z"/>
<path class="st0" d="M395,43.7c-1.6,0-3.1-0.3-4.6-0.9c-2.6-1.1-4.7-3.3-5.7-6s-1-5.8,0-8.5c0.5-1.3,1.3-2.5,2.3-3.5
	s2.2-1.8,3.5-2.4c2.9-1.2,6.2-1.2,9.1,0c1.3,0.6,2.5,1.4,3.4,2.4c1,1,1.7,2.2,2.2,3.5c1,2.7,1,5.8,0,8.5c-0.5,1.3-1.3,2.5-2.2,3.5
	c-1,1-2.2,1.9-3.5,2.4C398.1,43.4,396.5,43.7,395,43.7z M388.6,32.6c0,1,0.2,2,0.5,2.9c0.3,0.8,0.8,1.6,1.4,2.3
	c0.6,0.6,1.2,1.2,2,1.5c1.6,0.7,3.4,0.7,5,0c0.8-0.4,1.4-0.9,2-1.5c0.6-0.7,1-1.5,1.4-2.3c0.7-1.9,0.7-3.9,0-5.7
	c-0.3-0.8-0.8-1.6-1.4-2.3c-0.6-0.6-1.2-1.2-2-1.5c-0.8-0.4-1.6-0.6-2.5-0.5c-0.9,0-1.7,0.2-2.5,0.6s-1.4,0.9-2,1.6
	s-1.1,1.5-1.4,2.3C388.7,30.7,388.6,31.6,388.6,32.6L388.6,32.6z"/>
<path class="st0" d="M410.3,13.3h3c0.4,0,0.7,0.3,0.7,0.7v23c0,0.7,0.2,1.3,0.6,1.9c0.4,0.5,1.1,0.7,1.7,0.7c0.3,0,0.7-0.1,1-0.2
	l0.2-0.1c0.4-0.1,0.9,0.1,1,0.5v0.1c0.1,0.7,0.3,1.4,0.3,1.8c0.1,0.4-0.1,0.8-0.5,1c-0.6,0.2-1.1,0.3-1.7,0.5
	c-0.8,0.2-1.6,0.3-2.4,0.3c-1.3,0.1-2.6-0.4-3.6-1.3c-0.9-1-1.4-2.3-1.3-3.6V14C409.5,13.6,409.8,13.3,410.3,13.3L410.3,13.3z"/>
<path class="st1" d="M223,56H0V0h238.1c3.2,0,5.2,2.6,4.3,5.9l-11.9,44.3C229.5,53.5,226.5,55.8,223,56z"/>
<path class="st2" d="M160,39.7V14.9c0-0.4,0.4-0.8,0.8-0.8h3.5c0.4,0,0.8,0.4,0.8,0.8v24.8c0,0.4-0.4,0.8-0.8,0.8h-3.5
	C160.4,40.5,160,40.2,160,39.7z"/>
<path class="st2" d="M185.7,20.5l-0.3-0.2c-0.5-0.3-1.1-0.6-1.7-0.9c-0.7-0.3-1.4-0.5-2.1-0.7c-0.8-0.2-1.6-0.3-2.4-0.3
	c-1.1-0.1-2.2,0.2-3.2,0.8c-0.7,0.5-1.1,1.3-1,2.2c0,0.5,0.1,1,0.4,1.4c0.3,0.4,0.7,0.7,1.1,1c0.6,0.3,1.2,0.6,1.9,0.7
	c0.8,0.2,1.6,0.5,2.6,0.7c1.3,0.3,2.5,0.7,3.5,1.1c1,0.3,1.9,0.9,2.7,1.5c0.7,0.6,1.3,1.3,1.7,2.1c0.4,1,0.6,2,0.6,3.1
	c0,1.3-0.2,2.5-0.8,3.6c-0.5,1-1.3,1.8-2.2,2.4c-1,0.6-2,1.1-3.1,1.4c-1.2,0.3-2.5,0.4-3.7,0.4c-2,0-4-0.3-5.9-0.9
	c-1.6-0.5-3.2-1.2-4.6-2.1c-0.3-0.2-0.5-0.7-0.3-1.1c0,0,1.1-2.2,1.5-2.9c0.2-0.4,0.6-0.6,1-0.4c0.1,0,0.2,0.1,0.2,0.1l0.4,0.3
	c0.7,0.4,1.4,0.8,2.1,1.1c0.8,0.4,1.6,0.6,2.5,0.9c0.9,0.2,1.8,0.4,2.6,0.4c3.2,0.1,4.7-0.8,4.8-2.7c0-0.5-0.2-1-0.5-1.5
	c-0.4-0.4-0.9-0.8-1.4-1c-0.7-0.3-1.4-0.6-2.2-0.8l-2.8-0.8c-1.1-0.3-2.2-0.7-3.3-1.1c-0.8-0.4-1.6-0.8-2.3-1.5
	c-0.6-0.5-1.1-1.2-1.4-1.9c-0.3-0.8-0.5-1.7-0.5-2.6c0-1.2,0.2-2.5,0.8-3.6c0.5-1,1.2-1.9,2.1-2.6c0.9-0.7,2-1.2,3.1-1.6
	c1.2-0.4,2.5-0.5,3.8-0.5c1.8,0,3.5,0.3,5.1,0.9c1.2,0.4,2.4,1,3.5,1.7c0.4,0.2,0.5,0.7,0.3,1.1c0,0-1.1,2.1-1.5,2.8
	c-0.2,0.3-0.6,0.5-0.9,0.3C185.8,20.5,185.8,20.5,185.7,20.5z"/>
<path class="st2" d="M193.5,39.7V14.9c0-0.4,0.4-0.8,0.8-0.8h16.2c0.4,0,0.8,0.4,0.8,0.8v2.9c0,0.4-0.4,0.8-0.8,0.8h-11.8v6.8h9.7
	c0.4,0,0.8,0.4,0.8,0.8v2.6c0,0.4-0.4,0.8-0.8,0.8h-9.7v10.1c0,0.4-0.4,0.8-0.8,0.8h-3.5C193.9,40.5,193.5,40.2,193.5,39.7z"/>
<circle class="st3" cx="220.5" cy="15.9" r="4"/>
<path class="st2" d="M221.8,16.4l0.4,0.1c0.2,0,0.2,0.2,0.1,0.4c-0.1,0.3-0.3,0.6-0.6,0.8c-0.9,0.6-2,0.5-2.7-0.3
	c-0.4-0.5-0.6-1.1-0.6-1.7c0-0.6,0.2-1.3,0.6-1.8c0.4-0.4,1-0.7,1.6-0.6c0.5,0,1,0.2,1.4,0.5c0.2,0.2,0.3,0.3,0.4,0.6
	c0.1,0.2,0,0.3-0.2,0.4l-0.4,0.1c-0.1,0-0.3-0.1-0.3-0.2c-0.1-0.1-0.1-0.2-0.3-0.3s-0.4-0.2-0.6-0.2c-0.3,0-0.6,0.1-0.8,0.4
	c-0.2,0.3-0.4,0.8-0.3,1.2c0,0.4,0.1,0.9,0.3,1.2c0.2,0.2,0.5,0.4,0.8,0.4c0.2,0,0.5-0.1,0.6-0.2s0.2-0.3,0.3-0.4
	C221.5,16.5,221.6,16.4,221.8,16.4z"/>
</svg>
