<svg id="Réteg_1" data-name="Réteg 1" xmlns="http://www.w3.org/2000/svg" viewBox="0 0 572 56"><defs><style>.cls-1{fill:#fff;}.cls-2{fill:#e63457;}.cls-3{fill:none;stroke:#fff;stroke-miterlimit:10;stroke-width:0.52px;}</style></defs><title>Rajztábla 1</title><path class="cls-1" d="M433.18,43V14.35a.69.69,0,0,1,.69-.69H452a.67.67,0,0,1,.7.7v.55a.68.68,0,0,1-.7.7H435.34V27.52h14a.69.69,0,0,1,.71.69v.48a.65.65,0,0,1-.69.68H435.34V43c0,.46-.12.67-.7.67h-.79C433.41,43.67,433.18,43.47,433.18,43Z"/><path class="cls-1" d="M459.47,44.09a7.53,7.53,0,0,1-5.14-2A6.36,6.36,0,0,1,452.8,40a6.59,6.59,0,0,1-.55-2.68,5.18,5.18,0,0,1,.68-2.62,6.49,6.49,0,0,1,1.88-2.05,9.37,9.37,0,0,1,2.9-1.35,11.88,11.88,0,0,1,3.5-.48,24.22,24.22,0,0,1,7,1V29.8a6.84,6.84,0,0,0-1.78-5A6.38,6.38,0,0,0,461.63,23a9.69,9.69,0,0,0-3.4.68,17.49,17.49,0,0,0-3,1.53.7.7,0,0,1-1-.19,2.51,2.51,0,0,1-.19-.34.63.63,0,0,1,.21-.83,14.24,14.24,0,0,1,7.54-2.55,8.41,8.41,0,0,1,6.26,2.3A8.65,8.65,0,0,1,470.34,30V40.71a1,1,0,0,0,.48,1,.6.6,0,0,1,.45.64v.74a.68.68,0,0,1-.63.69h-.21a1.7,1.7,0,0,1-1.35-.57,2.39,2.39,0,0,1-.59-1.37V40.45A9.66,9.66,0,0,1,464.59,43,12.42,12.42,0,0,1,459.47,44.09Zm.42-1.69a10.75,10.75,0,0,0,4.5-.93A7.68,7.68,0,0,0,467.55,39a2.83,2.83,0,0,0,.67-1.69V33.44a16.91,16.91,0,0,0-3.17-.89,19.25,19.25,0,0,0-3.42-.3,11.77,11.77,0,0,0-3,.36,8,8,0,0,0-2.33,1,4.62,4.62,0,0,0-1.5,1.54,3.92,3.92,0,0,0-.53,2,5.13,5.13,0,0,0,.42,2.07,4.89,4.89,0,0,0,1.18,1.67,5.67,5.67,0,0,0,1.8,1.1A6.07,6.07,0,0,0,459.9,42.4Z"/><path class="cls-1" d="M475.24,32.59a12.08,12.08,0,0,1,.8-4.4,10.91,10.91,0,0,1,2.24-3.59,10.54,10.54,0,0,1,7.78-3.3,10.19,10.19,0,0,1,5.28,1.35,8.36,8.36,0,0,1,3,3,.68.68,0,0,1-.39,1l-.77.25a.66.66,0,0,1-.82-.32,7,7,0,0,0-2.48-2.36,7.79,7.79,0,0,0-4-1,8,8,0,0,0-3.38.72,8.47,8.47,0,0,0-2.73,2,9.56,9.56,0,0,0-1.84,3,10.25,10.25,0,0,0,1.88,10.48,8.75,8.75,0,0,0,2.75,2.05,7.78,7.78,0,0,0,5.62.42,9.72,9.72,0,0,0,2.07-.89A7.14,7.14,0,0,0,492,39.67a4.84,4.84,0,0,0,.71-1,.7.7,0,0,1,.83-.41c.19,0,.56.15.74.21a.7.7,0,0,1,.4,1,7.19,7.19,0,0,1-.94,1.36,8.67,8.67,0,0,1-2,1.71,10.41,10.41,0,0,1-2.62,1.12,10.92,10.92,0,0,1-3,.4,10.23,10.23,0,0,1-4.31-.91,10.62,10.62,0,0,1-3.44-2.49,11.84,11.84,0,0,1-3.11-8.09Z"/><path class="cls-1" d="M509,42.93a6,6,0,0,1-1,.44,12.48,12.48,0,0,1-1.37.38,7.66,7.66,0,0,1-1.65.17,5.37,5.37,0,0,1-1.67-.25A4,4,0,0,1,502,42.9a3.59,3.59,0,0,1-.93-1.23,3.91,3.91,0,0,1-.34-1.69V23.42h-2.35a.72.72,0,0,1-.74-.76v-.27a.68.68,0,0,1,.69-.71h2.4V14.84a.65.65,0,0,1,.65-.68h.86a.63.63,0,0,1,.6.69v6.84h4.42a.71.71,0,0,1,.69.8v.22a.67.67,0,0,1-.66.72H502.8V39.48a2.12,2.12,0,0,0,.84,1.84,3.17,3.17,0,0,0,1.9.61,5.3,5.3,0,0,0,2.26-.44l.47-.22a.66.66,0,0,1,.95.35l.14.38A.71.71,0,0,1,509,42.93Z"/><path class="cls-1" d="M522,44.09a10.09,10.09,0,0,1-4.29-.91,10.58,10.58,0,0,1-3.4-2.47,11.39,11.39,0,0,1-2.24-3.63,12,12,0,0,1-.8-4.35,11.86,11.86,0,0,1,3.09-8,10.67,10.67,0,0,1,3.4-2.47,10,10,0,0,1,4.25-.91,9.88,9.88,0,0,1,4.23.91,11,11,0,0,1,3.4,2.47,11.5,11.5,0,0,1,2.28,3.64,11.92,11.92,0,0,1-2.26,12.38,10.6,10.6,0,0,1-3.4,2.47A10,10,0,0,1,522,44.09ZM513.37,32.8a9.83,9.83,0,0,0,.68,3.65,9.56,9.56,0,0,0,1.84,3,8.73,8.73,0,0,0,2.73,2,7.92,7.92,0,0,0,6.68,0,8.67,8.67,0,0,0,2.75-2A10.19,10.19,0,0,0,529.9,29,9.6,9.6,0,0,0,528,26,9.18,9.18,0,0,0,525.31,24a7.43,7.43,0,0,0-3.32-.76,7.55,7.55,0,0,0-3.34.76A8.71,8.71,0,0,0,515.93,26a10.26,10.26,0,0,0-1.86,3.06A9.92,9.92,0,0,0,513.37,32.8Z"/><path class="cls-1" d="M547.56,23.63a8.6,8.6,0,0,0-7.64,6.3V43a.64.64,0,0,1-.68.69h-.73a.67.67,0,0,1-.7-.72V22.37a.66.66,0,0,1,.7-.68h.65a.65.65,0,0,1,.68.67v4a10.51,10.51,0,0,1,3-3.06,7.73,7.73,0,0,1,4-1.67c.22,0,.43,0,.61,0a.72.72,0,0,1,.7.68V23A.63.63,0,0,1,547.56,23.63Z"/><path class="cls-1" d="M553.69,51.82a.67.67,0,0,1,.64-.68,6.59,6.59,0,0,0,.78,0,2.1,2.1,0,0,0,.7-.21,1.62,1.62,0,0,0,.47-.36,5.23,5.23,0,0,0,.59-1q.38-.72,1-2.11l1.61-3.8-9.38-21a.92.92,0,0,1,.06-.63.82.82,0,0,1,.7-.32h.52a.72.72,0,0,1,.67.42l8.57,19.49,8-19.49a1.33,1.33,0,0,1,.05-.13.47.47,0,0,1,.5-.29h.74a.69.69,0,0,1,.62.57.51.51,0,0,1,0,.31l-11.68,28a3.73,3.73,0,0,1-1.5,1.84,5.23,5.23,0,0,1-2.81.65.66.66,0,0,1-.76-.67Z"/><path class="cls-1" d="M260.26,42.49V14.88a.75.75,0,0,1,.75-.75h3.09a.75.75,0,0,1,.75.75V42.49a.75.75,0,0,1-.75.75H261A.75.75,0,0,1,260.26,42.49Z"/><path class="cls-1" d="M278.44,43.66a9.21,9.21,0,0,1-4-.88,10,10,0,0,1-3.2-2.4,11.12,11.12,0,0,1-2.11-3.55,12.94,12.94,0,0,1,0-8.61,10.15,10.15,0,0,1,1.88-3.35,10.48,10.48,0,0,1,3.22-2.41,13.56,13.56,0,0,1,4.91-1,8.84,8.84,0,0,1,6.51,2.29V14.1a.8.8,0,0,1,.8-.8h2.92a.8.8,0,0,1,.8.8V37.92a1.78,1.78,0,0,0,.27,1.11,1,1,0,0,0,.4.27.8.8,0,0,1,.56.8v2.45a.84.84,0,0,1-.71.82l-.42.05c-.29,0-.53,0-.72,0a3.25,3.25,0,0,1-2.55-1,2.51,2.51,0,0,1-.61-1.55v-.17a9.51,9.51,0,0,1-2.82,2A11,11,0,0,1,278.44,43.66Zm1.11-3.85a6.16,6.16,0,0,0,2-.33,7,7,0,0,0,1.81-.9,6.35,6.35,0,0,0,1.42-1.36c.4-.52.84-1.47.84-3.89V29.47a4.29,4.29,0,0,0-.82-1.51,6.72,6.72,0,0,0-5.54-2.68,5.11,5.11,0,0,0-2.48.61,6.43,6.43,0,0,0-1.95,1.64,8.05,8.05,0,0,0-1.29,2.34,8,8,0,0,0-.47,2.71,7.58,7.58,0,0,0,.51,2.79,7.28,7.28,0,0,0,1.42,2.3A6.94,6.94,0,0,0,277,39.23,5.65,5.65,0,0,0,279.55,39.8Z"/><path class="cls-1" d="M304.71,43.66a11.42,11.42,0,0,1-4.55-.88,10.57,10.57,0,0,1-3.51-2.4,10.83,10.83,0,0,1-2.26-3.53,11.43,11.43,0,0,1-.8-4.27,11.59,11.59,0,0,1,.8-4.29,11,11,0,0,1,2.26-3.57,10.47,10.47,0,0,1,3.51-2.42,11.53,11.53,0,0,1,4.6-.88,11.06,11.06,0,0,1,4.53.9,10.84,10.84,0,0,1,3.47,2.4,10.29,10.29,0,0,1,2.19,3.49,11.57,11.57,0,0,1,.76,4.16q0,.49,0,.92a.87.87,0,0,1-.83.72H298.39a7.32,7.32,0,0,0,.68,2.58,6.8,6.8,0,0,0,1.44,2,6.23,6.23,0,0,0,2,1.29,6.29,6.29,0,0,0,2.36.45,7.14,7.14,0,0,0,1.79-.22,6.25,6.25,0,0,0,1.62-.66,5.79,5.79,0,0,0,1.31-1,6,6,0,0,0,.6-.78.85.85,0,0,1,1-.37c.56.15,2.24.64,2.24.64a.75.75,0,0,1,.46,1.09,9.21,9.21,0,0,1-3.23,3.13A11.38,11.38,0,0,1,304.71,43.66Zm6.52-12.76a7.2,7.2,0,0,0-.68-2.5,6.47,6.47,0,0,0-1.42-1.95,6.29,6.29,0,0,0-2-1.25,6.58,6.58,0,0,0-2.42-.45,6.41,6.41,0,0,0-2.4.45,6.35,6.35,0,0,0-2,1.25,6.18,6.18,0,0,0-1.39,1.95,7.49,7.49,0,0,0-.66,2.5Z"/><path class="cls-1" d="M325.1,43.66a8,8,0,0,1-2.89-.51,7,7,0,0,1-2.3-1.42,6.6,6.6,0,0,1-1.52-2.13,6.42,6.42,0,0,1-.55-2.67,5.74,5.74,0,0,1,.66-2.75A6.41,6.41,0,0,1,320.36,32a9.1,9.1,0,0,1,2.87-1.4,12.86,12.86,0,0,1,3.67-.58,22,22,0,0,1,5.66.7v-1.1A5,5,0,0,0,331.21,26a5.33,5.33,0,0,0-3.9-1.33,9.38,9.38,0,0,0-3.39.64,16.83,16.83,0,0,0-2.69,1.38.83.83,0,0,1-1.15-.42l-.66-1.35a.83.83,0,0,1,.3-1.05,15,15,0,0,1,8-2.39,9.83,9.83,0,0,1,6.89,2.26,8.35,8.35,0,0,1,2.46,6.48v7.75c0,.71.22,1.16.66,1.36a.84.84,0,0,1,.53.76v2.49a.85.85,0,0,1-.73.84l-.4,0q-.47,0-.92,0a2.9,2.9,0,0,1-2-.66,2.8,2.8,0,0,1-.88-1.68l0-.13a12,12,0,0,1-2.77,1.67A14.66,14.66,0,0,1,325.1,43.66Zm1.23-3.32a8.12,8.12,0,0,0,3.1-.59,5.64,5.64,0,0,0,2.28-1.66,4.28,4.28,0,0,0,.86-2.61V33.69a13.72,13.72,0,0,0-2.44-.7,13.42,13.42,0,0,0-2.52-.25,6.91,6.91,0,0,0-4,1,3.21,3.21,0,0,0-1.54,2.77,3.49,3.49,0,0,0,1.19,2.69A4.32,4.32,0,0,0,326.33,40.34Z"/><path class="cls-1" d="M342.33,33.31V30.75a.75.75,0,0,1,.75-.75h10.77a.75.75,0,0,1,.75.75v2.56a.75.75,0,0,1-.75.75H343.08A.75.75,0,0,1,342.33,33.31Z"/><path class="cls-1" d="M376.88,20.32l-.45-.31a12,12,0,0,0-1.83-1,13.33,13.33,0,0,0-2.3-.74,11.57,11.57,0,0,0-2.56-.29,7,7,0,0,0-4.29,1.07,3.53,3.53,0,0,0-1.37,3,3.2,3.2,0,0,0,.43,1.74A3.7,3.7,0,0,0,365.84,25a10.54,10.54,0,0,0,2.26.9q1.35.39,3.16.84a36.55,36.55,0,0,1,4,1.19,11.45,11.45,0,0,1,3,1.6,6.53,6.53,0,0,1,1.91,2.32,7.5,7.5,0,0,1,.68,3.34A8.11,8.11,0,0,1,380,39a7.18,7.18,0,0,1-2.3,2.61,10.12,10.12,0,0,1-3.38,1.48,17.44,17.44,0,0,1-4.14.47,20.62,20.62,0,0,1-6.42-1A18.51,18.51,0,0,1,358.7,40a.77.77,0,0,1-.22-1s1-1.85,1.3-2.45a.85.85,0,0,1,1.24-.26q.34.26.78.54a14.43,14.43,0,0,0,2.34,1.21A20.26,20.26,0,0,0,367,39a13.28,13.28,0,0,0,3.24.39,7.76,7.76,0,0,0,4.18-.94,3.1,3.1,0,0,0,1.48-2.79,3,3,0,0,0-.55-1.85,4.74,4.74,0,0,0-1.58-1.29,13.9,13.9,0,0,0-2.5-1q-1.48-.45-3.36-.94a35,35,0,0,1-3.8-1.21,9.52,9.52,0,0,1-2.69-1.54,6,6,0,0,1-1.62-2.11,7,7,0,0,1-.55-2.93A8.46,8.46,0,0,1,360.1,19a8.11,8.11,0,0,1,2.24-2.79,9.77,9.77,0,0,1,3.34-1.7,14.6,14.6,0,0,1,4.18-.57,15.39,15.39,0,0,1,5.46.94,18.63,18.63,0,0,1,3.83,1.94.76.76,0,0,1,.23,1s-.93,1.69-1.25,2.25A.89.89,0,0,1,376.88,20.32Z"/><path class="cls-1" d="M395,43.66a11.16,11.16,0,0,1-4.57-.9,10.51,10.51,0,0,1-5.68-6,12,12,0,0,1,0-8.49A10.51,10.51,0,0,1,387,24.75a10.93,10.93,0,0,1,3.49-2.42,11.83,11.83,0,0,1,9.07,0A10.92,10.92,0,0,1,403,24.75a10.53,10.53,0,0,1,2.24,3.55,12,12,0,0,1,0,8.49A10.52,10.52,0,0,1,403,40.34a10.89,10.89,0,0,1-3.49,2.42A11.07,11.07,0,0,1,395,43.66Zm-6.4-11.07a8.11,8.11,0,0,0,.49,2.87,7.15,7.15,0,0,0,1.35,2.28,6.33,6.33,0,0,0,2,1.52,6,6,0,0,0,5,0,6.18,6.18,0,0,0,2-1.54,7.37,7.37,0,0,0,1.35-2.3,8.57,8.57,0,0,0,0-5.72,7.33,7.33,0,0,0-1.35-2.32,6.18,6.18,0,0,0-2-1.54,5.81,5.81,0,0,0-2.52-.55,5.55,5.55,0,0,0-2.48.57,6.43,6.43,0,0,0-2,1.56,7.64,7.64,0,0,0-1.37,2.32A7.85,7.85,0,0,0,388.62,32.58Z"/><path class="cls-1" d="M410.3,13.3h3a.74.74,0,0,1,.74.74v23a2.66,2.66,0,0,0,.62,1.87,2.21,2.21,0,0,0,1.72.68,4,4,0,0,0,1-.16l.23-.07a.83.83,0,0,1,1.08.68c.12.66.27,1.38.34,1.84a.83.83,0,0,1-.5,1,13.38,13.38,0,0,1-1.71.46,12.8,12.8,0,0,1-2.42.26,5,5,0,0,1-3.63-1.27,4.84,4.84,0,0,1-1.29-3.61V14A.74.74,0,0,1,410.3,13.3Z"/><path class="cls-2" d="M223,56H0V0H238.05c3.24,0,5.16,2.63,4.29,5.86L230.48,50.14A8.2,8.2,0,0,1,223,56Z"/><path class="cls-1" d="M160,39.72V14.88a.81.81,0,0,1,.81-.81h3.53a.81.81,0,0,1,.81.81V39.72a.81.81,0,0,1-.81.81h-3.53A.81.81,0,0,1,160,39.72Z"/><path class="cls-1" d="M185.72,20.46l-.25-.17a11.83,11.83,0,0,0-1.68-.88,14.39,14.39,0,0,0-2.14-.73,9.39,9.39,0,0,0-2.35-.3,5.27,5.27,0,0,0-3.17.78,2.59,2.59,0,0,0-1,2.2,2.26,2.26,0,0,0,.39,1.36,3.37,3.37,0,0,0,1.14.95,9.52,9.52,0,0,0,1.88.74q1.14.34,2.63.71,1.94.52,3.52,1.12a9.5,9.5,0,0,1,2.68,1.49,6.15,6.15,0,0,1,1.7,2.14,7.12,7.12,0,0,1,.6,3.07,7.65,7.65,0,0,1-.8,3.63A6.75,6.75,0,0,1,186.66,39a9.4,9.4,0,0,1-3.13,1.36,15.64,15.64,0,0,1-3.71.43,19.9,19.9,0,0,1-5.89-.89,18.41,18.41,0,0,1-4.61-2.12.82.82,0,0,1-.27-1.06s1.09-2.2,1.49-2.91a.79.79,0,0,1,1.26-.26l.4.26a17.91,17.91,0,0,0,2.07,1.08,15.9,15.9,0,0,0,2.47.87,11.94,11.94,0,0,0,2.65.41q4.75.17,4.75-2.71a2.23,2.23,0,0,0-.48-1.45,4.12,4.12,0,0,0-1.38-1,13.37,13.37,0,0,0-2.16-.82l-2.83-.82a23.89,23.89,0,0,1-3.3-1.14,8.64,8.64,0,0,1-2.33-1.45,5.42,5.42,0,0,1-1.4-1.94,6.73,6.73,0,0,1-.46-2.63,8.21,8.21,0,0,1,.75-3.58A7.19,7.19,0,0,1,172.61,16a9.4,9.4,0,0,1,3.07-1.58,12.72,12.72,0,0,1,3.76-.54,14.65,14.65,0,0,1,5.14.88,20.06,20.06,0,0,1,3.46,1.66.81.81,0,0,1,.27,1.08s-1.08,2.12-1.51,2.78A.69.69,0,0,1,185.72,20.46Z"/><path class="cls-1" d="M193.5,39.72V14.88a.81.81,0,0,1,.81-.81h16.16a.81.81,0,0,1,.81.81v2.89a.81.81,0,0,1-.81.81H198.64V25.4h9.7a.81.81,0,0,1,.81.81v2.56a.81.81,0,0,1-.81.81h-9.7V39.72a.81.81,0,0,1-.81.81H194.3A.81.81,0,0,1,193.5,39.72Z"/><circle class="cls-3" cx="220.47" cy="15.91" r="3.96"/><path class="cls-1" d="M221.75,16.4l.39.12c.16,0,.21.2.13.4a1.73,1.73,0,0,1-.58.79,2.15,2.15,0,0,1-2.71-.26,2.37,2.37,0,0,1-.58-1.7A2.49,2.49,0,0,1,219,14a2,2,0,0,1,1.55-.63,1.9,1.9,0,0,1,1.36.49,1.46,1.46,0,0,1,.37.55c.06.16,0,.3-.17.35l-.4.1a.32.32,0,0,1-.33-.19.91.91,0,0,0-.25-.31,1,1,0,0,0-.62-.21,1,1,0,0,0-.82.36,1.79,1.79,0,0,0-.32,1.18,1.91,1.91,0,0,0,.31,1.23,1,1,0,0,0,.81.37.92.92,0,0,0,.63-.23,1.21,1.21,0,0,0,.29-.43C221.47,16.45,221.59,16.35,221.75,16.4Z"/></svg>