<?xml version="1.0" encoding="UTF-8" standalone="no"?><!DOCTYPE svg PUBLIC "-//W3C//DTD SVG 1.1//EN" "http://www.w3.org/Graphics/SVG/1.1/DTD/svg11.dtd"><svg width="100%" height="100%" viewBox="0 0 5417 834" version="1.1" xmlns="http://www.w3.org/2000/svg" xmlns:xlink="http://www.w3.org/1999/xlink" xml:space="preserve" xmlns:serif="http://www.serif.com/" style="fill-rule:evenodd;clip-rule:evenodd;stroke-linejoin:round;stroke-miterlimit:2;"><rect id="DC_logo_SVG_white" x="0" y="0" width="5416.67" height="833.333" style="fill:none;"/><path d="M1665.79,591.952c18.505,-0 35.036,-3.119 49.591,-9.357c14.555,-6.238 26.875,-14.971 36.96,-26.199c10.084,-11.229 17.778,-24.64 23.08,-40.235c5.302,-15.595 7.953,-32.749 7.953,-51.463l0,-271.66l60.196,0l-0,271.66c-0,25.784 -4.107,49.696 -12.32,71.736c-8.213,22.041 -19.961,41.118 -35.244,57.233c-15.283,16.114 -33.945,28.746 -55.985,37.895c-22.041,9.149 -46.785,13.723 -74.231,13.723c-27.447,0 -52.191,-4.574 -74.231,-13.723c-22.041,-9.149 -40.754,-21.781 -56.141,-37.895c-15.387,-16.115 -27.187,-35.192 -35.4,-57.233c-8.214,-22.04 -12.32,-45.952 -12.32,-71.736l-0,-271.66l60.196,0l-0,271.349c-0,18.713 2.651,35.867 7.953,51.462c5.302,15.595 12.995,29.006 23.08,40.235c10.085,11.228 22.456,20.013 37.116,26.355c14.659,6.342 31.241,9.513 49.747,9.513Zm2301.16,-0c18.506,-0 35.036,-3.119 49.591,-9.357c14.555,-6.238 26.875,-14.971 36.96,-26.199c10.084,-11.229 17.778,-24.64 23.08,-40.235c5.302,-15.595 7.953,-32.749 7.953,-51.463l0,-271.66l60.196,0l-0,271.66c-0,25.784 -4.107,49.696 -12.32,71.736c-8.213,22.041 -19.961,41.118 -35.244,57.233c-15.283,16.114 -33.945,28.746 -55.985,37.895c-22.041,9.149 -46.784,13.723 -74.231,13.723c-27.447,0 -52.19,-4.574 -74.231,-13.723c-22.041,-9.149 -40.754,-21.781 -56.141,-37.895c-15.387,-16.115 -27.187,-35.192 -35.4,-57.233c-8.213,-22.04 -12.32,-45.952 -12.32,-71.736l0,-271.66l60.196,0l-0,271.349c-0,18.713 2.651,35.867 7.953,51.462c5.302,15.595 12.996,29.006 23.08,40.235c10.085,11.228 22.457,20.013 37.116,26.355c14.659,6.342 31.241,9.513 49.747,9.513Zm689.599,-329.049c-1.871,3.119 -3.898,5.458 -6.082,7.017c-2.183,1.56 -4.834,2.339 -7.953,2.339c-3.535,0 -7.693,-1.767 -12.476,-5.302c-4.782,-3.535 -10.76,-7.433 -17.934,-11.696c-7.173,-4.262 -15.802,-8.161 -25.887,-11.696c-10.085,-3.535 -22.301,-5.302 -36.648,-5.302c-13.515,-0 -25.419,1.819 -35.712,5.458c-10.292,3.639 -18.921,8.577 -25.887,14.815c-6.966,6.238 -12.216,13.567 -15.751,21.989c-3.534,8.421 -5.302,17.518 -5.302,27.29c0,12.476 3.067,22.821 9.201,31.034c6.134,8.213 14.243,15.231 24.328,21.053c10.085,5.822 21.521,10.864 34.308,15.127c12.788,4.262 25.888,8.681 39.299,13.255c13.412,4.575 26.511,9.721 39.299,15.439c12.787,5.718 24.224,12.944 34.308,21.677c10.085,8.733 18.194,19.441 24.328,32.125c6.134,12.684 9.201,28.278 9.201,46.784c-0,19.545 -3.327,37.895 -9.981,55.05c-6.653,17.154 -16.374,32.073 -29.162,44.756c-12.788,12.684 -28.486,22.665 -47.096,29.942c-18.61,7.278 -39.767,10.917 -63.471,10.917c-29.11,-0 -55.517,-5.251 -79.221,-15.751c-23.704,-10.501 -43.977,-24.692 -60.819,-42.574l17.466,-28.694c1.663,-2.287 3.691,-4.211 6.082,-5.77c2.391,-1.56 5.042,-2.339 7.953,-2.339c2.703,-0 5.77,1.091 9.201,3.275c3.431,2.183 7.329,4.938 11.696,8.265c4.367,3.327 9.357,6.965 14.971,10.916c5.614,3.951 12.008,7.59 19.181,10.916c7.174,3.327 15.335,6.082 24.484,8.266c9.149,2.183 19.442,3.275 30.878,3.275c14.347,-0 27.135,-1.976 38.363,-5.926c11.228,-3.951 20.741,-9.513 28.538,-16.687c7.798,-7.173 13.776,-15.75 17.934,-25.731c4.159,-9.981 6.238,-21.105 6.238,-33.373c0,-13.515 -3.067,-24.588 -9.201,-33.217c-6.134,-8.629 -14.191,-15.854 -24.172,-21.676c-9.98,-5.822 -21.416,-10.761 -34.308,-14.815c-12.892,-4.055 -25.991,-8.214 -39.299,-12.476c-13.307,-4.263 -26.407,-9.201 -39.299,-14.815c-12.891,-5.614 -24.327,-12.892 -34.308,-21.833c-9.981,-8.941 -18.038,-20.117 -24.172,-33.528c-6.134,-13.412 -9.201,-29.994 -9.201,-49.748c0,-15.802 3.067,-31.085 9.201,-45.848c6.134,-14.763 15.075,-27.863 26.823,-39.299c11.748,-11.436 26.199,-20.585 43.353,-27.447c17.155,-6.861 36.856,-10.292 59.105,-10.292c24.951,-0 47.667,3.951 68.149,11.852c20.481,7.901 38.519,19.337 54.113,34.308l-14.659,28.695Zm698.644,-0c-1.871,3.119 -3.898,5.458 -6.082,7.017c-2.183,1.56 -4.834,2.339 -7.953,2.339c-3.535,0 -7.693,-1.767 -12.476,-5.302c-4.782,-3.535 -10.76,-7.433 -17.934,-11.696c-7.173,-4.262 -15.802,-8.161 -25.887,-11.696c-10.084,-3.535 -22.3,-5.302 -36.647,-5.302c-13.516,-0 -25.42,1.819 -35.712,5.458c-10.293,3.639 -18.922,8.577 -25.888,14.815c-6.965,6.238 -12.216,13.567 -15.75,21.989c-3.535,8.421 -5.303,17.518 -5.303,27.29c0,12.476 3.067,22.821 9.201,31.034c6.134,8.213 14.243,15.231 24.328,21.053c10.085,5.822 21.521,10.864 34.309,15.127c12.787,4.262 25.887,8.681 39.298,13.255c13.412,4.575 26.511,9.721 39.299,15.439c12.788,5.718 24.224,12.944 34.308,21.677c10.085,8.733 18.194,19.441 24.328,32.125c6.134,12.684 9.201,28.278 9.201,46.784c0,19.545 -3.327,37.895 -9.981,55.05c-6.653,17.154 -16.374,32.073 -29.162,44.756c-12.787,12.684 -28.486,22.665 -47.096,29.942c-18.61,7.278 -39.766,10.917 -63.47,10.917c-29.111,-0 -55.518,-5.251 -79.222,-15.751c-23.704,-10.501 -43.977,-24.692 -60.819,-42.574l17.466,-28.694c1.663,-2.287 3.691,-4.211 6.082,-5.77c2.391,-1.56 5.042,-2.339 7.953,-2.339c2.703,-0 5.77,1.091 9.201,3.275c3.431,2.183 7.33,4.938 11.696,8.265c4.367,3.327 9.357,6.965 14.971,10.916c5.614,3.951 12.008,7.59 19.182,10.916c7.173,3.327 15.334,6.082 24.483,8.266c9.149,2.183 19.442,3.275 30.878,3.275c14.347,-0 27.135,-1.976 38.363,-5.926c11.228,-3.951 20.741,-9.513 28.538,-16.687c7.798,-7.173 13.776,-15.75 17.934,-25.731c4.159,-9.981 6.238,-21.105 6.238,-33.373c0,-13.515 -3.067,-24.588 -9.201,-33.217c-6.134,-8.629 -14.191,-15.854 -24.171,-21.676c-9.981,-5.822 -21.417,-10.761 -34.309,-14.815c-12.892,-4.055 -25.991,-8.214 -39.299,-12.476c-13.307,-4.263 -26.407,-9.201 -39.298,-14.815c-12.892,-5.614 -24.328,-12.892 -34.309,-21.833c-9.98,-8.941 -18.038,-20.117 -24.172,-33.528c-6.134,-13.412 -9.201,-29.994 -9.201,-49.748c0,-15.802 3.067,-31.085 9.201,-45.848c6.134,-14.763 15.075,-27.863 26.823,-39.299c11.748,-11.436 26.199,-20.585 43.354,-27.447c17.154,-6.861 36.855,-10.292 59.104,-10.292c24.951,-0 47.668,3.951 68.149,11.852c20.481,7.901 38.519,19.337 54.113,34.308l-14.659,28.695Zm-2051.95,284.759c3.327,0 6.238,1.352 8.733,4.055l24.016,25.887c-18.298,21.209 -40.494,37.74 -66.59,49.592c-26.095,11.852 -57.648,17.778 -94.66,17.778c-32.021,-0 -61.131,-5.563 -87.33,-16.687c-26.199,-11.124 -48.552,-26.719 -67.057,-46.784c-18.506,-20.065 -32.853,-44.133 -43.042,-72.204c-10.189,-28.07 -15.283,-58.948 -15.283,-92.632c0,-33.685 5.302,-64.563 15.907,-92.633c10.604,-28.071 25.523,-52.19 44.757,-72.36c19.233,-20.169 42.261,-35.816 69.084,-46.94c26.823,-11.124 56.453,-16.686 88.89,-16.686c31.814,-0 59.884,5.094 84.212,15.283c24.328,10.188 45.745,24.016 64.25,41.482l-19.961,27.758c-1.248,2.08 -2.859,3.795 -4.834,5.147c-1.976,1.351 -4.627,2.027 -7.954,2.027c-3.742,-0 -8.317,-2.027 -13.723,-6.082c-5.406,-4.055 -12.476,-8.577 -21.209,-13.567c-8.733,-4.991 -19.649,-9.513 -32.749,-13.568c-13.099,-4.055 -29.214,-6.082 -48.344,-6.082c-23.08,0 -44.185,4.003 -63.314,12.008c-19.13,8.005 -35.608,19.597 -49.435,34.776c-13.828,15.179 -24.588,33.685 -32.282,55.518c-7.693,21.832 -11.54,46.472 -11.54,73.919c0,27.862 4.003,52.71 12.008,74.543c8.006,21.832 18.922,40.286 32.749,55.361c13.828,15.075 30.15,26.563 48.968,34.464c18.817,7.902 39.143,11.852 60.975,11.852c13.308,0 25.316,-0.78 36.024,-2.339c10.708,-1.559 20.585,-4.003 29.63,-7.33c9.045,-3.326 17.466,-7.537 25.263,-12.631c7.798,-5.095 15.543,-11.177 23.237,-18.246c3.534,-3.119 7.069,-4.679 10.604,-4.679Zm-1896.94,-130.995c0,33.476 -5.302,63.938 -15.906,91.385c-10.605,27.447 -25.576,50.943 -44.913,70.488c-19.338,19.545 -42.574,34.672 -69.709,45.381c-27.134,10.708 -57.128,16.062 -89.981,16.062l-166.864,0l0,-446.945l166.864,0c32.853,0 62.847,5.354 89.981,16.063c27.135,10.708 50.371,25.887 69.709,45.536c19.337,19.65 34.308,43.198 44.913,70.645c10.604,27.446 15.906,57.908 15.906,91.385Zm2907.48,223.316l-60.508,0l0,-446.945l60.508,0l-0,446.945Zm728.274,-49.279l-0.312,49.279l-275.403,0l0,-446.945l275.403,0l0,49.28l-214.895,-0l-0,148.461l174.037,0l-0,47.408l-174.037,0l-0,152.517l215.207,-0Zm-1305.59,49.279l-53.646,0c-11.02,0 -19.13,-4.262 -24.328,-12.787l-116.025,-159.69c-3.535,-4.991 -7.329,-8.578 -11.384,-10.761c-4.055,-2.183 -10.344,-3.275 -18.87,-3.275l-45.848,0l-0,186.513l-60.196,0l0,-446.945l126.318,0c28.278,0 52.71,2.859 73.295,8.577c20.585,5.718 37.583,13.984 50.995,24.796c13.411,10.812 23.34,23.86 29.786,39.143c6.445,15.283 9.668,32.385 9.668,51.306c0,15.803 -2.495,30.566 -7.485,44.289c-4.99,13.724 -12.216,26.044 -21.677,36.96c-9.461,10.916 -21.001,20.221 -34.62,27.915c-13.62,7.693 -29.058,13.515 -46.316,17.466c7.693,4.366 14.347,10.708 19.961,19.025l130.372,177.468Zm-1422.24,-446.945l-0,446.945l-30.254,0c-4.782,0 -8.785,-0.831 -12.008,-2.495c-3.223,-1.663 -6.394,-4.47 -9.513,-8.421l-258.56,-336.846c0.415,5.198 0.727,10.292 0.935,15.283c0.208,4.99 0.312,9.668 0.312,14.035l0,318.444l-53.022,0l0,-446.945l31.19,0c2.703,0 4.99,0.156 6.861,0.468c1.872,0.312 3.535,0.832 4.991,1.559c1.455,0.728 2.911,1.768 4.366,3.119c1.456,1.352 3.015,3.067 4.679,5.147l258.56,336.534c-0.416,-5.406 -0.78,-10.656 -1.091,-15.751c-0.312,-5.094 -0.468,-9.928 -0.468,-14.503l-0,-316.573l53.022,0Zm477.511,446.945l-46.785,0c-5.406,0 -9.772,-1.351 -13.099,-4.054c-3.327,-2.703 -5.822,-6.134 -7.486,-10.293l-41.793,-107.915l-200.549,-0l-41.794,107.915c-1.247,3.743 -3.638,7.07 -7.173,9.981c-3.535,2.911 -7.902,4.366 -13.1,4.366l-46.784,0l178.716,-446.945l61.131,0l178.716,446.945Zm-1447.5,-223.316c0,-27.447 -3.742,-51.983 -11.228,-73.607c-7.485,-21.625 -18.09,-39.923 -31.813,-54.894c-13.724,-14.971 -30.358,-26.407 -49.903,-34.308c-19.546,-7.902 -41.378,-11.852 -65.498,-11.852l-106.356,-0l-0,349.01l106.356,-0c24.12,-0 45.952,-3.951 65.498,-11.852c19.545,-7.902 36.179,-19.286 49.903,-34.153c13.723,-14.867 24.328,-33.112 31.813,-54.737c7.486,-21.625 11.228,-46.161 11.228,-73.607Zm1321.5,57.388l-70.176,-181.834c-2.079,-5.407 -4.263,-11.696 -6.55,-18.87c-2.287,-7.174 -4.47,-14.815 -6.55,-22.924c-4.366,16.842 -8.837,30.877 -13.411,42.106l-70.176,181.522l166.863,0Zm864.26,-64.562c17.467,0 32.905,-2.131 46.317,-6.394c13.411,-4.262 24.64,-10.292 33.684,-18.09c9.045,-7.797 15.855,-17.102 20.43,-27.914c4.574,-10.813 6.861,-22.769 6.861,-35.868c0,-26.615 -8.733,-46.68 -26.199,-60.196c-17.466,-13.515 -43.665,-20.273 -78.597,-20.273l-66.122,0l-0,168.735l63.626,0Z" style="fill:#fff;fill-rule:nonzero;"/><path d="M36.835,55.089l723.154,0l0,305.863c-86.634,25.632 -187.745,31.928 -278.666,16.914c-72.729,-12.009 -140.423,-35.464 -215.374,-40.472c-43.913,-2.935 -89.739,-1.739 -134.343,3.851c-0,0 0.158,-0.198 0.455,-0.57c28.572,-35.826 72.608,-55.754 118.38,-53.571c5.191,0.287 10.362,0.574 15.508,0.918c74.951,5.008 142.645,28.463 215.374,40.473c74.282,12.266 155.366,10.308 229.805,-4.799l-0,-219.91l-625.432,-0l0,294.923c74.439,-15.107 155.523,-17.065 229.805,-4.799c72.729,12.01 140.423,35.465 215.374,40.473c76.052,5.082 157.846,-2.223 229.114,-23.298l0,367.159c0,0 -723.154,0 -723.154,0l-0,-268.001c86.634,-25.632 187.745,-31.928 278.666,-16.915c72.729,12.01 140.423,35.465 215.374,40.473c43.913,2.934 89.739,1.739 134.343,-3.852c0,0 -0.158,0.199 -0.455,0.571c-28.572,35.826 -72.608,55.753 -118.38,53.571c-5.191,-0.287 -10.362,-0.574 -15.508,-0.918c-74.951,-5.008 -142.645,-28.463 -215.374,-40.473c-74.282,-12.266 -155.366,-10.308 -229.805,4.799l0,181.883l625.432,0l-0,-256.907c-58.456,11.691 -121.092,15.233 -180.253,11.28c-74.951,-5.009 -142.645,-28.463 -215.374,-40.473c-90.921,-15.014 -192.032,-8.718 -278.666,16.914l-0,-405.107Z" style="fill:#fff;"/></svg>