<svg xmlns="http://www.w3.org/2000/svg" viewBox="0 0 1017.98782 1200">

<style>
    *{
        fill: #FFFFFF;
    }
</style>

<path d="M417.67969,419.1781c-2.07813-1.78119-6.23413-1.48431-6.23413,1.78119s-3.26551,6.82782-5.34351,5.34351-6.531-1.78119-6.82788,2.96862-4.74976,3.8592-8.01526,2.67176-2.96863,3.85919-3.56238,10.39019-3.56225,5.64038-6.23413,5.0467-3.26538-8.01532-3.85913-10.68708-3.85925-2.96862-4.453,2.078,5.04675,36.21728,6.531,42.15454c0,0,.766,2.0321,1.94715,1.18841s18.8988-9.6181,18.8988-11.47424-4.04968-9.11194-4.2185-15.35529,6.91833-15.35528,24.97338-24.1297,45.7284-12.65545,50.453-12.48669,5.06225,3.20605,2.7,5.06219-18.73023,13.49909-20.41748,14.6803c-1.6875,1.18115-2.53113,2.36237-1.6875,2.86853s2.82055.38,4.19885.38,25.2677-19.06568,41.11755-29.86194,29.63221-20.44391,28.25391-21.36273a55.0984,55.0984,0,0,0-32.38867-3.44562c-8.49915,1.83765-56.39514,21.72906-63.33923,23.92194s-8.63367,1.73638-8.3368,4.11132S419.75769,420.95929,417.67969,419.1781Z"/><path d="M476.72485,600.40314c-5.8667-2.3946-7.76147,3.4931-7.18383,8.38116,1.55664,13.17041,5.50769,15.32556,9.69824,16.28345s9.33911-2.03546,9.93774-6.226,1.43677-8.50092,0-11.49421S482.5918,602.79779,476.72485,600.40314Z"/><path d="M393.5033,500.84387c4.142,2.55829,11.81689,5.482,18.88269,8.52759s12.91333,8.16223,18.39538,18.88275,3.411,20.95368,5.84754,29.23761a32.52611,32.52611,0,0,0,10.4768,15.959c3.28931,2.80194,8.52771,1.2182,9.86768-1.82734s3.77661-5.11663,6.09131-5.60394,4.3855.24365,5.36023,6.57849c.97448,6.33484,2.07092,8.04035,4.38562,10.11139s8.04028,1.58368,9.624,1.58368,4.02026-.4873,4.99487-4.7511,3.16736-6.944,5.96924-6.944,3.65479,4.38562,4.873,9.015,5.11658,5.96936,12.54785,5.96936,9.74585-3.0456,10.47681-5.60389,1.09643-7.06573,4.75122-7.18762,4.02014,2.31464,5.3601,5.60388,4.87305,3.77655,11.8169,2.68018c6.94409-1.09644,5.72583-7.43127,5.72583-10.23322s1.94922-4.38562,3.411-4.02014,4.38562,2.80194,6.82214,4.7511,6.94385,2.92377,11.57325,1.82733,7.137-8.73419,10.20166-17.76721c3.06494-9.03308,4.678-24.84106,5.48437-30.00281.80664-5.1618,1.12915-10.48492,16.45325-22.4215s23.71179-19.35669,28.067-29.035,6.61365-28.38977,6.83326-37.03827c.23974-9.43908-2.39551-9.30017-3.94556-9.4411s-3.94556,4.22736-5.63647,7.0456-4.72217,2.5382-7.28125,1.59277c-3.188-1.17774-3.76746-6.88764-2.0962-11.72559.958-2.773-3.30456-4.94476-4.291-1.1402s-3.6593,6.269-6.2002,5.63654c-2.33642-.58166-3.57214-2.41669-2.988-5.4613.54223-2.82715,1.04028-6.12354-.3938-7.0799-.58618-.39087-3.5896-1.6-4.83814.54022-1.49267,2.5589-2.96167,2.88648-4.78589,2.28882-1.49707-.49042-2.35351-3.6745-2.49438-5.50635s-1.10706-2.8081-2.96387-3.63336-40.00586-14.72009-43.79724-16.26471-5.89783,0-8.00427,1.40424-48.44654,37.072-49.00806,37.63373c-.56177.56176.84253,9.68933,1.12329,18.1148s-2.3872,43.81244-29.34875,49.42945S416.05115,490.071,414.647,486.98169s4.21265-10.67218,5.05518-11.65527.42139-2.80841-.56152-2.38715-8.42554,5.33618-12.91919,8.00421-19.44385,11.39215-18.95728,12.49774A13.48377,13.48377,0,0,0,393.5033,500.84387Zm148.07544-71.82318c15.06042-9.49011,27.274-6.68079,38.57946,2.26941,14.85413,11.75952,12.99732,32.39026,7.42713,45.18127s-19.18665,11.14057-22.28113,10.31537c-3.09473-.82525-4.33252,1.44416-.2063,4.676,4.126,3.23187,11.96582,4.60779,7.427,5.63934s-16.092.6189-26.20105-5.63934-18.774-11.48419-20.32824-27.57611S526.51831,438.5108,541.57874,429.02069ZM494.6272,506.84686c4.126-10.45257,7.7019-21.83984,12.103-20.9599s11.553,13.1554,15.679,23.24677,1.92554,18.89355,0,21.09411-6.60156,3.02576-7.977.82514c-1.37525-2.20056-4.17737-10.45258-5.5271-13.75342s-.53125-9.18-2.3158-8.16583-2.05944,5.41516-2.05944,9.54114a19.21221,19.21221,0,0,1-2.93726,10.45269,6.17175,6.17175,0,0,1-5.55347,3.30078,10.2615,10.2615,0,0,1-7.46338-7.15179C487.75049,521.70068,490.50122,517.29956,494.6272,506.84686Z"/><path d="M557.05176,488.43719c2.06311.82526,3.39282-.17639,2.47583-3.91979-.53858-2.19837-4.95142-1.65046-4.95142,0A3.67787,3.67787,0,0,0,557.05176,488.43719Z"/><path d="M505.71167,266.04156c3.98022.24878,11.44324-.49749,7.46289-5.72161s-14.42847-6.468-25.37414-3.98029-12.66895,5.64679-12.43836,11.94086c.5874,16.03656,1.9834,17.38568,4.78809,29.30554s14.02343,43.93976,14.6853,46.277c.66211,2.33722,2.61011,2.6878,3.545,1.63611s1.75293-13.55591,2.22034-16.94489,1.28552-5.60931-1.2854-5.60931-2.80469-.93494-2.80469-2.2204.46753-2.92151,3.03833-3.2721a2.853,2.853,0,0,0,2.80469-3.27209c0-1.28552-.35059-3.27216-2.10352-3.27216s-4.207-.58429-4.21118-2.57092c-.00439-1.98663,2.10767-2.4541,5.0293-2.10352s3.38892-1.16857,3.15527-2.6878-1.98669-1.636-4.79138-1.636-3.389-.81805-3.39319-2.57092c-.00439-1.75293,2.22461-2.33722,5.55347-2.33722,3.3291,0,3.33227-1.40234,3.33227-3.03839s0-2.33722-4.207-2.33722-3.6228-2.10352-3.6228-3.15527,3.6228-.93488,7.01172-.81806,3.85644-.58429,3.97339-1.16858a2.83536,2.83536,0,0,0-.23389-2.6878c-.81787-1.05176-5.72607-1.40235-7.59595-1.51923s-3.7395-.35058-2.68774-3.03839,5.14185-1.75287,10.167-1.28546c5.0249.46747,5.14185-1.16858,5.14185-2.57092s-3.97339-2.68781-8.06348-2.92157-5.72619-.70111-5.72619-3.15522S501.73145,265.79285,505.71167,266.04156Z"/><path d="M211.13257,524.61212c-3.947-4.36261-14.33423-1.86969-19.11231,3.94708s-4.15478,15.78846,2.90845,18.07361,18.69678,10.80261,21.1897,17.86585.62329,18.28131-.20777,23.05938,5.60914,6.23224,12.04908,1.86969,13.71106-10.92956,16.41162-16.68286,9.34839-9.49267,11.21814-11.57013,4.15954-23.47485-3.32154-35.10846-20.56884-10.38708-23.06164-6.85546-.62329,9.14068-2.90845,14.74969c-.87634,2.151-2.07739,1.0387-2.07739,1.0387S215.07971,528.97467,211.13257,524.61212Z"/><path d="M813.491,896.99921c3.41113-.24366,25.583-3.89838,28.75049-6.09119s2.43652-3.89838,0-7.553-4.87281-2.68018-6.822-.731-16.81176,5.84754-39.22729,5.36023-34.598-.97461-45.07483-7.06579-17.29895-9.50226-18.02991-10.96411-1.21826.97461,0,3.89837,4.38562,14.37519,5.60388,15.837-3.89831,1.46191-4.87292-1.46185-1.94922-5.36023-7.79675-5.36023-51.1659-9.25861-63.34827-16.32441-70.65784-37.03442-82.10938-46.293-70.8601-48.97314-84.5249-59.6936-43.63354-32.40515-51.67395-39.22729-17.53894-13.4101-23.42029-16.39032c-25.75048-13.0484-41.65149-20.4986-47.10327-26.82264s-11.99389-15.65484-13.08423-17.09545-1.52649-.13215-1.52649.95819,2.835,16.35528,1.74451,16.35528-3.707-7.85052-5.88782-8.94086-25.29626-14.3927-30.31189-18.536-6.324-7.85052-9.595-5.2337-6.54223,12.64807-6.106,15.483c.436,2.8349,2.43359,3.31916,3.46728.90717s1.89527-7.40821,4.30713-8.442c2.41211-1.03369,5.34082-.34454,4.99634,1.3783s-3.96265,8.442-3.27344,10.5094,3.44568,2.412,4.30713-.86145,4.30713-7.236,6.20215-5.51312c1.89526,1.72283-3.61792,8.78656-2.41187,10.6817s4.13477.34454,5.51307-1.89514,2.0675,2.06738,1.20593,4.47937c-.86133,2.412,1.03369,6.20227,4.65173,6.89141s23.24109,14.311,32.74341,17.9657,21.92834,6.33484,28.26306,10.23322c6.335,3.89837,9.746,9.01495,7.5531,10.72046s-.73083,2.92382.97461,3.89837,8.52771-2.43646,16.08069,2.92377,36.05981,30.45593,42.88208,34.11066c6.822,3.65472,20.1759,7.30944,20.1759,7.30944s-17.25219,3.16742-17.49585,4.87293,5.60388,5.33582,13.88782,6.80988c8.28418,1.47412,15.34985,1.96142,24.36475,8.29626s34.598,26.80121,57.7445,40.4455,45.31848,25.33935,48.97315,27.04486,6.33484,4.142,3.89831,5.60388-11.20776,4.142-15.34973,4.142,1.21826,3.65472,4.62927,5.36023,19.97913,3.65472,28.50684,3.41107,24.6084,12.426,51.166,17.29895,42.39453,10.72052,62.37365,11.69513,28.994,9.2586,47.755,9.9895c18.76074.731,26.801,1.94922,27.28833-1.2182s-6.822-5.84754-12.42578-7.30945C806.42529,901.38489,810.08008,897.24286,813.491,896.99921Z"/><path d="M732.50854,614.35522c-3.04675-1.10791-5.28662-.03985-8.58642,1.93891-12.906,7.739-158.06787,95.988-236.57471,124.607a.95527.95527,0,0,0-.26172,1.65662c7.59412,5.92114,44.2865,34.50128,46.27246,35.4942,2.21582,1.108,46.533-24.37445,58.16626-32.12994S732.23157,651.471,738.60217,647.03918s7.20154-6.09362,3.87781-16.065S735.55542,615.4632,732.50854,614.35522Z"/><path d="M230.62061,362.09729c1.477-.16412,9.51928-6.07263,10.17578-10.99634s-.6565-15.42779-4.4314-19.85913-4.90576-4.75964-7.04834-2.79016-12.61987,8.01032-11.64172,9.35516c3.663,5.03595,9.33484,11.32459,10.3197,16.24836C228.97925,358.97894,229.14343,362.26141,230.62061,362.09729Z"/><path d="M327.14014,333.17578c-2.24195-.96295-4.11792-1.85681-6.59363,0s-17.63977,14.85455-29.709,25.37647S253.821,387.4209,252.70239,394.13361a36.27974,36.27974,0,0,0,0,11.13342c.9773,5.703,7.91931,5.93115,11.227,10.03729s2.62329,9.467,2.85157,14.37158c.228,4.90461,2.96557,8.32636,6.15918,12.0904s4.79052,6.04516,5.93115,10.94976,8.89673,13.00287,11.406,14.82782,6.50025,2.55982,17.36621,2.34247c10.86573-.21728,44.60181,1.86884,50.65357,1.70526,6.05151-.16351,7.11475-1.88092,7.60535-3.27111a10.54025,10.54025,0,0,0-.327-6.46051c-.89966-2.86225-2.61694-2.86225-3.68018-2.2898a42.51063,42.51063,0,0,1-4.98852,2.53516c-3.92529,1.79913-8.25952,3.18933-10.54932,3.02581s-3.10766-1.39025-1.71728-2.61694c1.39013-1.22668,9.32263-6.21521,13.16626-7.36005s2.61694-3.43469,2.45337-4.49786a1.8658,1.8658,0,0,0-3.02588-1.30847c-1.79908,1.06317-15.78321,8.66858-19.13611,8.7503s-4.82507-.89953-3.92542-2.28973,12.75745-8.66858,16.68286-10.71307,3.76172-2.7804,3.84351-3.84357-1.06311-1.79913-2.535-1.3902-12.26685,6.21515-18.40027,10.22235-17.5824,11.36719-18.56372,11.85791-3.9878.26453-1.6377-2.47747c2.35034-2.74195,17.03955-16.64777,34.86255-27.224s75.40454-31.337,99.10327-40.34644c23.69849-9.00934,37.9961-14.68921,54.282-14.68921s23.4729,3.52545,40.51246,8.42188,41.92163,9.32776,76.1206,22.59906,55.44446,29.325,58.959,31.82562,3.244,3.78479,2.97363,4.46069-.94605,2.0951-3.98755,1.08136c-3.04126-1.01385-8.44824-3.85241-13.65234-6.691s-8.85376-5.00134-11.422-5.27173-4.12268,1.8924-3.10889,3.51447,1.28406,2.16272,4.39307,4.32556,10.13782,7.502,10.20544,8.24548-.47314,1.35169-2.16272,1.28406-6.62341-2.29791-8.651-3.17645-4.731-.40558-5.27173.40546-1.55444,3.04138-.20276,3.98761,10.3407,5.33923,10.3407,5.94751.54077,3.24414,0,3.24414a16.54966,16.54966,0,0,1-4.90967.23059c-3.64794-.23542-6.58984-3.17725-7.29589-3.29492s-2.5481,3.66943-1.18409,4.46508-.56835,3.18268,18.52747.682,48.53516-11.02551,54.55945-15.11755,10.45727-5.22858,12.95788-9.0932,2.24183-10.36835,1.93982-12.78479,1.05725-3.62464,2.86951-4.98389,2.86951-3.32257,4.53076-8.1554,2.71839-7.4002-1.81238-9.81665-5.99157-5.16382-5.99157-7.34454,5.45178-4.79755,12.43-8.94092,7.19629-12.43,7.41443-17.44562-.65418-5.66986-14.17456-11.99389-54.73572-30.96607-66.72962-41.21533S634.00562,284.543,611.76245,265.1347s-48.41333-54.96447-53.70166-63.92511c-5.28808-8.96063-8.96045-13.36761-11.31091-13.51446s-5.28821,2.05652-6.46338,6.61029-7.051,35.402-12.63306,65.36877-14.2489,52.14814-17.18689,67.13147-6.75708,30.40754-11.75171,30.7013c-4.99438.29382-8.22607-6.31659-12.48608-16.59925s-14.39587-43.92193-18.80273-65.80944-8.37305-52.14807-9.2544-60.66809-4.26-11.75165-4.70068-15.86475-1.76282-5.28827-3.67237-5.28827-3.67236,2.35034-7.93237,6.31659-8.81372,11.75165-11.60486,15.86475-9.69519,10.28271-14.39587,18.21508-17.33362,22.91578-23.5033,30.26056-6.67029,7.19983-6.80822,10.92609-.61207,28.95727-1.37134,36.04462c-.75928,7.08715-3.92334,7.34033-7.97315,5.94818s-16.32593-10.75745-18.98364-12.52924-5.06226-.12652-8.859,2.65778-4.4115,3.16766-3.51477,6.53064c2.01782,6.27771-.44849,14.12475-4.25976,18.58075C336.78076,336.54907,329.3822,334.13879,327.14014,333.17578ZM665.1106,414.44635c-2.89344,0-3.21485-2.572-4.82251-4.17938-1.60743-1.60749-1.92884-4.01874,0-5.30469,1.92907-1.286,4.01269.857,5.787,3.215C667.7345,410.38251,668.004,414.44635,665.1106,414.44635Zm29.899,11.25232c-2.89343,1.12524-7.71594-1.44672-12.732-3.85791s-9.45117-5.94769-10.04761-9.48413c-.59668-3.53644,1.2395-4.34015,4.13294-2.73273,1.66027.92243,6.74914,4.23712,11.89538,6.75141a58.48012,58.48012,0,0,0,8.68018,3.37567C700.12256,420.8418,697.90308,424.57349,695.00964,425.69867Zm9.1626-17.68219c-3.37561,1.76819-10.93078.32147-17.03931-1.286s-24.11206-12.056-33.9176-17.843-10.93091-9.48407-10.77-11.57385c.16065-2.08966,3.0542-3.69714,7.30225-1.1308s9.4154,4.98883,17.77417,10.61493,27.48791,13.02057,32.3103,15.271S706.02881,407.044,704.17224,408.01648Zm-2.25049-20.25415s-9.32336-3.215-16.71765-5.46545c-7.39453-2.25049-19.28979-9.80561-25.71972-15.43177s-9.1626-10.60931-9.64478-12.21673a3.0639,3.0639,0,0,1,3.53638-3.69727c2.572.4823,8.51977,5.46545,17.68225,13.50287s23.95141,15.27093,28.7738,17.8429,12.85986,3.215,13.02051,6.10839S707.86938,390.01276,701.92175,387.76233Zm-73.48352-77.165c7.03833,1.00549,11.563,7.541,43.86353,32.80334,32.30078,25.26246,40.596,25.5138,43.23523,26.89631s5.30334,3.47955,3.89612,5.02734c-1.25684,1.38251-1.88526.87976-4.39893,0s-9.42615-3.89618-23.50269-10.80878-21.7434-14.70495-31.79809-21.55743-22.49732-19.28974-27.39893-21.55206-7.16382-5.53-7.541-7.16394C624.4165,312.60822,624.4165,310.47162,628.43823,310.59729Zm.18262,24.27917c2.89355.96442,9.85461,8.77155,13.02051,12.53821,2.59741,3.09009,3.53662,5.30469,2.73279,6.91211s-2.41114,2.41126-5.30457.96454-4.82251-5.94763-9.80566-10.44855-5.62622-5.62616-5.78687-8.19812S625.72754,333.91193,628.62085,334.87646ZM271.21729,402.87732c-.90992-1.28931-.40406-2.94452,4.64746-7.53412s18.38769-15.0968,27.48046-20.14831,24.65149-15.15461,28.49073-17.37732,7.072-3.43506,7.27417-2.22272.202,2.42474-6.06189,8.48663-27.07617,23.035-33.94641,25.66181c-6.87,2.62683-10.531,8.01037-16.07569,10.97631S273.64209,406.31238,271.21729,402.87732Zm19.196,19.80206c-2.22278,1.81854-4.64746,2.02063-6.26392.80823s-1.66076-3.67883,1.01026-6.466c4.64746-4.84949,7.27417-2.62677,8.34985,0S292.636,420.86078,290.41333,422.67938Zm49.31323-7.99432c-6.0072,4.32525-35.56323,22.58752-39.64819,25.47107s-6.00745.48059-6.488-1.92237.96118-3.12377,10.33264-10.33264,32.18213-20.996,37.96631-25.23071c3.3866-2.47937,7.20886-.72089,6.96851,1.44177S345.734,410.35974,339.72656,414.68506Zm34.6023-22.58759c-1.92237,2.16272-6.24756,5.04621-11.53418,7.92969-5.28638,2.88355-7.0586-3.98218-3.60425-6.96851,4.37781-3.78479,11.05347-7.27594,15.13843-7.12219S376.25122,389.93488,374.32886,392.09747ZM354.26477,313.364c2.62683-1.41443,6.87,1.61652,8.6886,3.94019s3.43506,7.17316,0,9.39587-5.65772,2.62683-7.47632,1.41449-3.637-6.87018-3.637-6.87018C351.43591,317.20319,351.63794,314.77844,354.26477,313.364Zm7.88025,43.84735c5.85986-5.85974,12.84582-8.48657,14.50537-7.67834s-.96716,3.233-4.80627,6.26392-5.25354,7.0722-21.01453,20.61035c-15.76074,13.538-43.24109,34.14837-46.67615,35.76483s-4.04114,2.02063-5.85974,0,.404-7.48193,5.45557-10.7121,20.00415-12.525,29.09692-19.395S356.2854,363.07117,362.145,357.21136Z"/><path d="M890.3772,198.60321c4.03589,2.52228,10.08935,8.91223,8.23974,13.28424-1.84985,4.372-9.92114,2.8587-13.6206,1.51343s-7.0625.16815-8.2395,2.52228c-1.17725,2.35424-1.51368,6.5581,1.34521,7.567,2.8584,1.009,10.76172,9.2486,9.09863,13.45246-1.66357,4.20392-12.12548,4.372-15.825,3.19494s-5.3811.33631-6.38989,2.186c-1.009,1.84967-.33643,4.372,2.52222,6.05365s5.04467,5.38092,4.20385,7.90326c-.84057,2.52234-3.53125,5.54907-8.57592,4.20386s-9.92115,1.84973-11.77076,5.381-4.70849,10.59381-.33642,14.79766-1.00879,14.12507-5.21265,11.939-9.24853.16821-11.09839,3.195c-1.84961,3.02673-1.34521,7.0625,3.19507,10.59375s6.89429,7.73517,4.87647,10.25751-9.92115,7.23065-14.125,5.54913-10.93018-3.86762-13.28443.50445c-2.354,4.372,4.03565,7.39887,7.0625,9.92121s.67285,7.567-4.03564,8.74408c-4.70825,1.177-9.92114-1.34528-13.28418-3.86762-3.36328-2.52234-5.8855-1.68152-8.91235.50446-3.02662,2.186-5.38111,9.92114-7.90333,19.00152s-5.04467,16.47931,6.3899,28.92273,31.9497,24.04627,40.18921,26.90491,31.94946,1.34522,35.48071,2.01782,23.87817,2.5224,25.3916,2.85871,2.85864,1.84967,6.22168,5.21283c3.36328,3.36309,12.4436,8.74408,13.62061,10.7619a29.58965,29.58965,0,0,0,5.3811,6.22174c2.18579,2.01794,7.73511,9.75305,11.09814,11.09833s8.07154,1.00891,10.59375-.67267c2.52246-1.68152,9.24854-8.744,10.08936-10.93006s2.01782-9.41668,1.46631-12.27533a19.37852,19.37852,0,0,0-5.16577-8.576c-1.6814-1.34522-.84082-7.0625-3.02686-8.40772s-2.01782-4.54022-3.69922-5.88544c-1.68164-1.34533-1.84985-4.54028-3.86767-6.8944s-8.57593-8.40778-8.57593-9.753,3.53125-1.17712,10.93017-1.00891c7.39869.16809,13.4524,2.01783,23.54175,1.84961s14.6294-6.558,17.15186-9.92114.67261-12.27533-1.68164-16.64734-2.35425-5.8855.16821-8.57593c2.52222-2.69049,5.21265-2.01788,9.24854-3.69946s4.54028-4.03571,9.75293-6.89435c5.21289-2.85864,5.04467-4.87652,4.87646-7.06256-.168-2.186,1.84985-3.86755,3.363-5.04468,1.51367-1.177.67285-5.21276,3.19507-7.7351,2.52246-2.52234,2.69067-4.87653,3.02685-7.39887s3.53125-3.6994,3.364-12.77984c-.167-9.08033-1.68261-14.12494-1.51416-23.37354.168-9.24854.69483-18.02539,1.41065-23.514.71606-5.48852-2.38623-6.08514-5.96582-6.08514s-7.45752-.23865-9.60523-4.71314-17.89819-18.25592-20.04565-20.04571c-2.148-1.7898-7.33813-3.75861-9.30713-4.11658-1.96875-.35791-5.01123-4.11651-8.05395-5.54828s-4.47437-1.25293-7.51709-2.32678-8.23316-1.78979-8.949-3.22162c-.71606-1.43182-3.04272-1.96875-7.69629-3.22168-4.65332-1.25281-14.1394-2.68463-16.28711-3.22162s-5.19043-3.0426-9.12793-4.11651-10.20166-6.80127-14.1394-10.02283c-3.9375-3.22162-6.98023-.71594-8.41187,1.25281C891.62109,190.41675,886.34155,196.08087,890.3772,198.60321Zm114.83838,112.806a16.7407,16.7407,0,0,1-11.44507,10.86554c-2.31812.57947-5.50537-.28973-4.491-5.36035,1.01392-5.07056,4.346-8.69238,8.40259-9.70654C1001.73853,306.19379,1006.56543,307.57294,1005.21558,311.40924Zm-28.82984-13.9079c1.15894-2.75262,18.09668-14.71551,23.32471-17.96429,6.21118-3.86005,8.54736-.43463,7.968,4.34619-.57959,4.78088-4.0564,11.7348-9.272,16.08093s-12.16943,4.78089-17.81958,4.49115C974.937,304.16553,975.22656,300.254,976.38574,297.50134Z"/><path d="M881.17139,667.13623c-2.62207,2.34619-17.94141,15.8714-20.08057,17.38953-2.1394,1.51812-.65552,2.46051.136,2.4541.79174-.00641,1.67309-.04657,9.03662-4.5365s26.51391-20.06085,40.15283-35.29388,25.103-33.65723,26.1958-52.9607c1.09253-19.30347-10.90405-40.22027-18.5874-48.81329s-8.60523-13.04926-9.68091-17.81293-5.83936-8.60522-9.06616-10.14191c-3.22705-1.53668-6.3003-.15368-10.9104,1.22931-4.60987,1.383-6.915,3.84168-5.532,7.837s4.6101,6.6076,8.91259,10.29559c4.30274,3.688,9.52735,12.13959,14.44458,20.43756,4.91748,8.29792,14.44458,25.96949,11.37134,45.79236s-8.14429,30.6319-11.98584,35.67664c0,0,2.30493-35.60059,1.38306-47.3172-.92212-11.71662-2.96118-7.49689-6.44043-.6413-3.84082,7.56744-12.35523,26.57965-44.41944,47.9585s-40.37768,26.45373-42.63525,27.95874-2.408,2.709-1.2041,3.46161c1.2041.7525,3.16064-1.204,4.06372-1.8061s2.87866-1.23614,3.63769-.61511.27588,1.51813-1.03515,2.27722-2.48413,1.86316-1.24219,3.17426c1.24219,1.31116,3.79541-.69006,5.72754-2.48419s4.48535-.483,5.79663.55206c1.311,1.0351,2.208,3.31226-.75928,5.31348s-5.17529,4.20935-3.72607,5.10644c1.449.897,2.69116.96607,7.31445-1.72516,3.17676-1.84906,9.17725-5.92968,12.76612-6.48657,4.00244-.62109,5.72753.138,6.55566,2.00116s-3.10522,4.63532-6.7627,6.76856c-3.65722,2.13324-4.14013,3.44433-3.58837,4.2724.55224.82806,1.51831.69006,3.79541-.552a116.30142,116.30142,0,0,0,14.42236-9.17785c6.55566-4.89942,12.55908-10.00586,15.7334-12.62812s4.48535-2.48419,6.34863-2.27716C883.17261,662.02979,883.7937,664.79,881.17139,667.13623Z"/><path d="M749.28223,654.31866s-122.10584,78.34034-123.85645,80.091.3728,2.3219,3.60681,2.69507,7.71179,2.98516,6.71668,5.34851-13.93091,2.23889-21.39392,1.24383-6.96546,1.11945-5.59729,2.1145,8.73852,1.74134,6.29712,4.72657c-2.44117,2.98523-15.62586.49755-18.98414,2.23889s-2.1145,3.3584,0,4.35345.995,3.98029-4.10473,3.48273-10.697-1.38165-12.314.05548,5.09974,2.059,4.229,4.29791-7.83618,1.7414-13.68213,2.98523-24.87671,11.69208-26.61817,12.81153c-1.74121,1.11944-2.86071,2.23889,0,3.98022s54.61988,37.88434,57.19971,38.1189,24.8606-15.0102,50.6593-36.82184,97.097-87.44483,99.20777-90.04279-1.82093-15.73193-1.33875-18.62536,6.26929-6.42994,5.144-9.6449-3.37574-3.21491-4.34021-1.28595-3.858,2.73273-3.858-.48224,3.858-7.07288,4.66175-9.8056S749.28223,654.31866,749.28223,654.31866Z"/><path d="M133.13953,198.71765c2.189,1.87622,2.9707,4.69049,3.28332,8.28662s2.65808,5.47235,3.28345,8.28668,3.75244,14.8534,7.81763,17.51136,1.246,6.55395,4.2843,12.397,20.80139,37.16187,25.70947,48.38049,9.34534,23.66492,15.33667,24.60108,11.79529,4.68066,13.29321,5.05517,5.99134,3.74457,9.923,0c3.93188-3.74456,15.35278-10.29754,20.59521-14.04211s20.14478-10.70941,22.51135-13.076,10.781-6.04785,13.41053-6.83673,6.04785-3.4184,8.15161-6.04785c2.10351-2.62952,12.62158-3.1554,15.251-3.94428,2.62964-.78888,10.51807-5.522,12.35889-6.83667,1.84058-1.31482,5.522-2.1037,8.67725-2.1037,3.15551,0,7.36267-4.20721,9.46631-4.73309s11.04394-4.73309,20.24719-11.56988,28.66174-8.67737,33.132-11.83277c2.84838-2.01074,18.08227-21.74518,30.12133-37.43237l-.02026.00775,10.58545-13.75616v-.00007c1.845-2.383,3.24792-4.17,4.01514-5.09075,2.41211-2.89454,8.918-6.50086,15.73584-9.13251l20.37146-1.03913a71.193,71.193,0,0,1,5.1062,10.50623L471.0791,199.589c3.61768,9.33563,6.82446,17.64349,7.92529,17.64349,2.36658,0,24.98035.52594,31.81714.52594s7.89112-2.84076,13.04346-21.05786a136.20093,136.20093,0,0,1,5.21228-15.86145s6.53662-11.56274,14.58691-8.524c9.11658,2.61743,23.57093,10.608,27.8285,15.373,4.70019,5.26056,28.54992,35.99762,31.5094,40.17572s8.35607,4.004,10.79333,5.04846,8.182,6.26709,11.66357,8.70429c3.48182,2.43719,15.66773,1.74084,18.105,1.91492s3.82984-2.4372,2.43726-4.004-7.7478-4.17859-8.727-6.52887,5.87573-1.17517,11.35962,0,8.226,1.17511,13.31836,4.89642c5.09216,3.72119,7.44238,4.113,12.92651,8.03009,5.48389,3.91712,15.66834,15.08094,19.78137,18.2146s14.68921,3.32953,23.50281,9.0094,31.53272,19.97736,36.4292,22.13172,8.226,6.855,10.57629,9.0094,7.63831,2.93786,14.68909,6.30151c7.051,3.36371,11.35987,6.03747,18.41065,6.03747s9.20507-3.32952,11.35962-7.05084,9.40112-13.90576,11.75122-18.21466c2.35034-4.30878,6.07177-10.57617,6.855-14.68915.78369-4.113,2.54638-9.98864,4.89648-11.35968,2.35034-1.371,6.26758-4.30883,6.07153-8.226-.1958-3.91717,2.78394-5.38129,7.07007-11.668,4.28638-6.28668,24.28955-43.43524,32.00513-59.47271,7.71533-16.03742,7.32495-26.45411,8.61548-37.42292s-1.613-10.96875-6.12964-16.77575c-4.51636-5.807-10.32349-16.45307-15.1626-19.034s-6.7749-4.51654-13.5498-9.35571c-6.77466-4.83918-38.71314-26.77668-38.71314-24.19587-2.58105,9.35578-12.25927,9.67835-15.48535,5.807s-1.613-15.16272-4.5166-17.09833-7.74268-4.194-11.2915-1.93567c-3.54859,2.25824-12.9043,1.93567-18.38868,1.613s-11.2915-4.51654-11.2915-5.807,12.25928.32263,7.09753-2.25831-28.06713-17.421-41.61682-22.26013S671.06592,21.41687,660.74231,19.4812,620.416,12.38373,612.996,9.48022s-10.96887-2.9035-17.09851-1.613-27.74438,8.06524-40.32629,11.29144S534.27881,13.99677,527.504,5.93152,512.34131.44714,498.14648,3.35065,439.10864,8.835,426.52686,9.48022s-39.35865,5.48444-48.0691,8.71051-23.228,8.38794-25.48632,8.71052-9.35572.6452-13.54956,1.613-12.25928,5.807-14.195,6.45221-6.12952,1.29047-9.35571,1.93567-7.74256,5.48438-12.90442,6.45227S274.57715,55.291,269.41528,55.61365s-10.001,4.19391-14.19482,5.48431c-4.19409,1.29047-9.67835,10.001-16.13062,15.16278S221.669,84.00342,209.73218,88.19727c-11.93653,4.194-20.32447,10.3236-25.16358,17.09845s-28.06714,25.80883-35.48718,30.0028-13.87231,13.54969-20.32458,20.0019-4.12964,5.63342,0,30.648C130.1593,194.44312,130.95068,196.84143,133.13953,198.71765ZM805.14685,133.671q2.31921,1.769,5.15125,3.54785,2.98031,1.87216,5.43237,3.10059L792.75012,259.13855a36.5046,36.5046,0,0,0-.53753,4.10236c-.32947-.813-.644-1.60755-.9336-2.36536-3.20032-8.37506-1.10779-20.09656.06879-28.27142,3.3739-23.44556,5.11017-29.43811,6.94928-45.16236.04516-.45733.13983-.973-.20276-1.05493-.28778-.04645-.51178.88318-.51178.88318-1.56342,7.51135-8.30664,31.53815-11.824,58.21588-1.62487,12.32514,3.85486,22.93042,10.15827,29.95654l-1.60523,2.55536q-8.88638-6.20608-22.89856-15.008-15.65166-9.83213-23.46008-14.11365l1.91962-3.05579q5.8785,3.38122,9.12524,3.75727a5.01147,5.01147,0,0,0,5.11884-2.60529q1.45056-2.30906,2.6781-8.40009l6.5639-30.80139-33.24127-20.88153-10.626,7.98065q-10.91711,8.11-14.84875,14.37153-3.55875,5.66519-1.60919,10.0072,1.94952,4.34244,8.59149,8.827l-1.91962,3.05579Q709.701,224.22312,701.055,218.79205q-7.00662-4.40148-11.90771-6.85669l1.91961-3.05578q8.3975,3.50931,23.18366-7.78424ZM595.78058,170.497q8.06469,2.52373,12.1709,2.55847a8.26659,8.26659,0,0,0,6.588-2.76776q2.48125-2.804,4.78961-9.92047l31.76367-97.9596L647.32495,61.186q-8.28844-2.68752-15.19128-.9469-6.90363,1.7408-13.70648,8.74109-6.80484,7.00141-14.404,20.45111l-3.93506-1.276A135.77,135.77,0,0,0,604.90961,75.284q3.80053-11.72078,8.19171-29.544,15.49265,5.57886,52.83551,17.6872,37.34106,12.10794,52.994,16.62829Q712.02772,97.064,708.22723,108.785a135.39342,135.39342,0,0,0-3.64892,13.25153l-3.93537-1.27606q1.79517-15.24069.39441-24.90125-1.40212-9.66047-5.95556-15.16278a26.78479,26.78479,0,0,0-12.75922-8.16235l-3.93506-1.276-31.76367,97.95959q-.88467,2.72854-1.36945,4.95905a17.67833,17.67833,0,0,1-1.11779-13.56763c4.85626-16.95734,12.57818-43.8042,14.19409-49.554a1.52987,1.52987,0,0,0-.17108-1.21746l-.06812-.11084a.82926.82926,0,0,0-1.1145-.28742l-.01825.01032a1.52908,1.52908,0,0,0-.69745.84021c-2.01837,5.937-13.83594,39.04529-16.74359,48.01251-3.96112,12.21619-1.73639,25.73358,20.05725,33.4671l-.94086,2.90155q-21.43808-7.50659-32.40625-11.06293-10.80075-3.50215-31.56036-9.6784ZM505.97119,8.87842c3.99683-3.46948,9.24146-3.36493,14.50781,0,2.54663,1.62726,3.93213,9.2522-6.01391,8.327S501.97461,12.348,505.97119,8.87842Zm-61.08728,150.918q5.89572-.79212,8.66968-3.03675a11.69878,11.69878,0,0,0,3.78461-6.86523,70.10334,70.10334,0,0,0,1.01245-13.86285V54.87976q0-6.777-1.01245-9.858a6.52055,6.52055,0,0,0-3.74067-4.225q-2.72926-1.14276-8.71362-1.4082v-3.6087q5.72058.52817,15.66724.528,9.064,0,15.4909-.528l69.79761,85.9931V65.35376q0-10.64859-1.144-15.62323a11.1409,11.1409,0,0,0-4.7088-7.26141q-3.56507-2.28791-11.66236-3.08063v-3.6087q6.9516.52817,19.45185.528,10.03409,0,15.66687-.528v3.6087q-5.89765.792-8.66968,3.03668a11.69217,11.69217,0,0,0-3.78461,6.8653,70.00722,70.00722,0,0,0-1.01214,13.86279V150.3457L488.68817,85.59076a1.35476,1.35476,0,0,0-.61249-.402l-.04431-.014a.50358.50358,0,0,0-.65021.5542,1.35485,1.35485,0,0,0,.291.65784l61.66632,77.33752c-.89007-.03668-2.14056-.055-3.76269-.055q-3.16874,0-4.84107.088L462.48743,64.64948v69.18157q0,10.65106,1.144,15.62323a11.12931,11.12931,0,0,0,4.70911,7.26142q3.5646,2.28992,11.66235,3.08069v3.6087q-6.95407-.52826-19.45178-.52808-9.94776,0-15.66724.52808ZM342.13861,87.85693c1.06928-5.26727,3.90949-19.25854,6.71576-28.72644,1.47919-4.99139,2.495-8.19452,4.64661-11.031a4.64635,4.64635,0,0,1,1.90136-1.47486,5.936,5.936,0,0,1,4.93775.22773,4.9935,4.9935,0,0,1,2.71588,3.29187c.4917,2.0592.04,4.99292-1.27216,8.26056-.4707,1.17169-1.96106,4.29467-3.68658,7.91113-1.90234,3.98681-4.05847,8.50561-4.95691,10.66467-.67871,1.63062-1.49042,3.33753-2.34973,5.145-.98993,2.08209-2.01343,4.23486-3.00806,6.61963a3.13757,3.13757,0,0,1-2.96564,1.92908l-.43188-.0094a2.34324,2.34324,0,0,1-2.2464-2.80793ZM309.82916,193.77,306.1507,80.65649q2.77478-.89941,5.84967-2.2149,3.23574-1.3841,5.64172-2.70062l82.09729,83.98352c-8.67932-1.61231-14.29327-7.36347-19.76038-12.88617-17.48382-17.66187-20.16308-20.35877-31.50543-31.35767a1.51886,1.51886,0,0,0-1.9671-.25146c-.7652.62182.36365,1.75061.36365,1.75061,5.28479,5.56183,20.911,24.7666,40.62665,43.07947,10.44232,9.69934,21.01147,10.16906,29.89184,8.76776l1.2442,2.90863q-10.16144,3.77215-25.37536,10.28027-16.99394,7.26928-24.95966,11.251l-1.41925-3.31787q6.1268-2.90781,8.28424-5.36268a5.01136,5.01136,0,0,0,.77258-5.69146q-1.07244-2.50727-5.38092-6.98426l-21.58459-22.93273-36.09241,15.43884.51111,13.27936q.45154,13.59228,3.36066,20.38952,2.63114,6.15106,7.31073,7.02045,4.68.86948,12.14825-2.03754l1.41925,3.31787q-11.37543,4.29145-20.76275,8.30719-7.6074,3.25407-12.41633,5.88544l-1.41925-3.31787Q310.69519,212.35559,309.82916,193.77ZM166.88654,175.17761a32.98006,32.98006,0,0,1,7.5921-16.74627A54.50044,54.50044,0,0,1,190.42786,145.59a57.88913,57.88913,0,0,1,10.38659-4.58008,37.89736,37.89736,0,0,1,8.18848-1.7215,78.372,78.372,0,0,1,7.892-.15478q5.00775.17075,6.55279-.67633a2.77114,2.77114,0,0,0,1.33087-2.88544,21.95725,21.95725,0,0,0-1.65887-5.965l3.629-1.98584q5.01645,11.00208,18.95959,36.4809l-3.6289,1.98584A56.18734,56.18734,0,0,0,229.342,151.88745a36.54516,36.54516,0,0,0-16.05426-7.51922,24.21939,24.21939,0,0,0-16.50043,2.75854,23.18914,23.18914,0,0,0-7.939,6.85278,16.32525,16.32525,0,0,0-3.11365,8.978,18.53694,18.53694,0,0,0,2.46814,9.73608q4.30984,7.87611,11.76617,10.31726a83.2297,83.2297,0,0,0,17.83307,3.43555q10.3766.99537,13.97363,1.33307a192.08613,192.08613,0,0,1,20.54346,2.70465,43.4291,43.4291,0,0,1,14.633,5.83868,32.56114,32.56114,0,0,1,11.1297,12.27088q.366.66879.69989,1.3363c-3.42481-4.42-9.02234-8.16321-17.91364-10.17279-9.67761-2.18719-25.52344-4.20233-37.182-5.16821-5.28443-.43787-14.4021-1.377-14.71027-1.4259-1.04767-.16632-1.33423.88415-.08081,1.21356,3.62506.70434,7.13843,1.86688,13.571,3.31244,7.78968,1.75055,17.48389,3.45733,22.50653,4.51623,9.17951,1.93518,24.12879,5.46466,31.61786,20.3551a22.0042,22.0042,0,0,1-2.77746,23.97944l-.091.10815a62.26646,62.26646,0,0,1-17.96338,14.29486,65.35046,65.35046,0,0,1-15.57543,6.46631A56.03377,56.03377,0,0,1,227.067,269.018q-4.62342-.37895-6.55292.676a2.77042,2.77042,0,0,0-1.33087,2.88538,21.92413,21.92413,0,0,0,1.659,5.96527l-3.629,1.98584q-4.791-10.22031-22.74793-43.03662l3.62927-1.986q10.67844,17.13356,23.53345,24.396,12.85464,7.26353,26.98425-.46863a27.83492,27.83492,0,0,0,8.92188-7.44067,17.99107,17.99107,0,0,0,3.75159-9.8288,20.0436,20.0436,0,0,0-2.73706-11.14447,24.37291,24.37291,0,0,0-8.95856-9.4956,39.08685,39.08685,0,0,0-12.69977-4.689,167.16619,167.16619,0,0,0-18.22125-2.21973,199.50806,199.50806,0,0,1-21.04553-2.42987,45.27153,45.27153,0,0,1-15.18067-5.7395,32.099,32.099,0,0,1-11.611-12.50915Q165.59339,184.36548,166.88654,175.17761Z"/><path d="M109.97949,974.62952c-3.1759-3.52875-3.7052-5.99884-1.41162-10.93915,2.29382-4.94031,4.41113-3.88165,7.05762-2.64655s11.292,6.5282,12.5271,3.3523,2.82312-4.94031-2.47-7.58685-10.40991-6.35175-9.7041-9.52765c.70556-3.176,4.76367-6.17542,9.88037-3.35236s10.05713,4.76379,13.58593.70575c3.52857-4.05811,3.23536-7.607-2.36377-12.4339-5.59936-4.8269-9.6538-12.9361-6.9508-16.41138s7.33679,2.70307,12.743,5.213c5.406,2.51,9.96289-.87867,10.66235-2.97687s0-7.6933-3.49707-12.72888-2.238-10.63068-.41955-12.58893,7.27356-1.58112,11.33008,2.007,8.2528,4.14758,9.79138,2.32922.83935-3.91656-3.21716-7.13379-5.4552-9.93127-2.6576-10.77063c2.79737-.83917,3.35694-2.5177.27979-5.595-3.07739-3.07733-10.34717-10.99988-11.28943-12.88434s-3.76892-3.769-6.0304-5.84192-19.0332-24.87512-23.17907-36.37042-8.66858-24.49823-3.58045-29.9632,20.3523-1.13067,24.68653.18848c4.33447,1.31915,10.36474,3.58051,11.68383,3.20361s1.804-2.33062-7.86084-12.6607c-8.2583-8.82654-26.89257-38.19129-29.71557-41.01434s-4.5874-8.99836-7.05762-11.46851-5.1167-12.52716-8.99829-16.23236-10.05713-2.64661-19.23181,2.11731c-9.17493,4.76385-23.99573,15.35016-29.28882,23.46631s-7.58679,21.7019-8.64551,25.4071-1.235,5.64606-3.1759,5.999-3.88159-3.1759-6.35181-3.70526-6.35181,1.23511-8.11609,7.76331-7.93982,22.937-7.58679,27.7008c.35278,4.76392,6.52808,25.58362,12.17407,34.582s8.64551,15.35016,7.58692,16.93811-4.94019.00238-11.11548-4.498c-6.17554-4.50037-16.76172-8.55847-19.76123-8.382s-8.2926,6.8811-9.52759,10.057,2.47009,21.34906,8.82178,41.11016,17.64392,43.58027,29.46533,59.10694,35.2876,30.87671,40.93359,33.69971,11.46851,4.411,12.17432,5.646,5.646,4.411,8.11621,4.23456,7.4104,3.88159,11.46851,2.2937,6.17529-4.5874,5.82251-9.88055C117.21338,978.86407,113.1554,978.15833,109.97949,974.62952ZM45.47632,827.82312c-7.53443-2.97876-10.86353-16.12024-11.214-19.9751s3.74695-3.62964,6.308-3.15393c2.28491.42444,4.55567-1.05133,1.92725-3.32922-2.62818-2.27777-3.15381-5.0813-.70081-7.88483s7.35926-1.40179,11.73975,5.43183,6.48315,12.96624,6.48315,21.0263S53.01086,830.80182,45.47632,827.82312Z"/><path d="M4.31763,356.03864c3.556,3.30194,6.85791,5.58789,9.65185,4.572a43.57033,43.57033,0,0,0,14.73169-9.39783c5.33386-5.3338,9.90576-9.90576,13.20764-10.92169s2.286,4.57184,1.778,6.34979-5.07984,15.49371-8.88989,20.57355c-3.80982,5.07989-9.90577,13.2077-10.15967,17.52557s-4.31787,10.15979-4.064,15.23969c.25415,5.07989,1.27,8.38177,2.794,13.2077s3.302,7.87384,4.064,10.92175,2.794,4.0639,3.80982,8.88983c1.01611,4.82587,2.79406,5.58783,6.35,2.53992s7.61975-6.60388,11.42981-1.27c3.80982,5.33386,1.52393,12.44568,1.01587,18.54157s1.52393,8.38177,7.36585,13.46167,17.52551,15.23968,26.4154,17.52557,18.03357,2.794,20.82752,1.77795,9.39782-12.69964,11.42981-19.30352,4.06372-11.17579,6.85778-13.20765c2.79383-2.032,4.06385-6.85784,5.08-8.38183,1.01587-1.524,5.58777-4.572,7.36572-9.90582s8.12793-7.11182,12.69971-12.69971,3.55591-8.88977,9.65185-10.41376c6.09571-1.524,18.03345-4.5719,22.60547-5.33386,4.57178-.762,6.60376-3.30194,8.38172-3.80988s3.55591-5.07989,6.60388-5.58789,8.63574-4.064,10.66772-8.6358,6.85791-5.0799,9.1438-5.84186,3.55591-7.61987,1.52393-16.5097-5.58789-18.79547-12.44568-20.82746-16.76355-2.54-18.03357-9.1438-1.01587-9.39776-7.61975-7.36584-10.41382-1.016-9.39783-7.11182,5.8418-11.42975,4.31787-15.23968-5.84179-7.11182-6.34985-7.87378-9.39771,7.61981-13.71558,9.14374-8.88989-5.0799-6.35-8.88971,7.11194-11.42975,8.88977-14.22376c1.77807-2.79388-2.28589-5.84179-4.064-7.87378-1.77783-2.032-12.19165,4.5719-18.03344,7.11188s-8.63587-8.6358-3.55591-13.7157,10.66772-10.15979,10.92163-11.68377c.25415-1.52393-4.06384-7.11182-5.8418-8.38178s-14.98559,9.39777-18.03357,9.65173-4.5719-7.87378-1.26989-10.41375,11.93774-9.65174,12.95361-10.66773-4.25574-5.84186-4.28687-6.09588-9.93676,6.09588-12.4768,7.61987c-2.5398,1.52392-5.283-7.61987-2.76856-12.69977,2.51465-5.07989,6.07056-6.85785,7.34058-7.87378s.17712-3.97095-.762-5.07989c-1.83521-2.16706-5.08-2.286-10.41382,0S81.278,225.99365,74.67407,228.53363s-12.6997,4.5719-15.49365,8.12781-10.92175,5.33392-13.20776,8.38183S39.3689,253.933,35.30493,259.7749s-9.1438,10.66779-11.17566,17.01764-1.778,9.39777-4.5719,13.96961-8.88989,13.96972-10.66772,27.43139A147.30491,147.30491,0,0,1,2.28577,346.8949C.76172,350.95886.76172,352.73676,4.31763,356.03864Zm46.9812,15.90814c4.26147-1.77564,7.79883,0,8.19873,8.59881s-7.99878,22.99677-13.198,25.59638-6.999,1.39978-9.79871-1.79975-1.60534-11.97454.99988-19.79718C39.23755,379.32959,41.7002,375.94629,51.29883,371.94678Z"/><polygon points="346.337 146.179 310.766 108.455 312.753 160.545 346.337 146.179"/><path d="M779.001,586.27228c-2.061,2.37805-2.061,6.34143,0,8.40234,2.06079,2.061,6.34131,2.37805,8.0852,5.54871s-3.17065,4.439-2.37817,7.134c.79272,2.69507,2.85376,3.32922,6.5,2.69507s6.18286,3.17071,3.17065,5.3902c-3.012,2.21948-6.81689,4.41565-4.439,7.92669,2.1958,3.24195,9.5122,13.3169,10.78051,14.74372,1.26807,1.42682,3.17066,0,6.02417-2.061,2.85376-2.06091,9.82911-6.65838,12.04859-9.512s3.01221-5.70728-1.10962-10.78034-22.67041-24.25573-27.74365-27.585C784.8667,584.84552,781.06177,583.89429,779.001,586.27228Z"/><polygon points="784.922 153.292 743.229 184.583 774.16 204.013 784.922 153.292"/><path d="M792.76636,323.72809c-2.68482-.358-8.77-.71594-12.70752-1.43189-3.93775-.71588-11.0968-7.6961-12.8866-7.6961s-2.86365,4.83246-4.47449,14.1394-2.50561,22.55145-1.07385,29.17365,11.27576,14.85534,12.70752,14.85534,3.0426-6.08532,4.8324-13.60247,4.11645-13.0655,6.08545-15.77863c1.96875-2.71307,6.44311-14.82684,7.51709-16.79565C792.76636,326.59174,795.45117,324.086,792.76636,323.72809Z"/><path d="M329.14557,993.67255q-4.49882-1.87629-7.16016-1.594a6.76532,6.76532,0,0,0-4.68384,2.94318,41.92479,41.92479,0,0,0-4.54608,8.71332l-17.191,41.21978,7.19709,3.00159q9.40383,3.92193,16.18133,2.52393a19.91066,19.91066,0,0,0,11.30371-6.615,50.482,50.482,0,0,0,8.07514-13.72193q5.73037-13.74,3.79773-22.803Q340.1854,998.27787,329.14557,993.67255Z"/><path d="M878.354,1013.71222c-3.36718-7.50031-10.25537-21.58246-11.93921-22.19476-1.68359-.61231-1.83666-6.27576-3.5205-7.19416-1.6836-.91839-9.031-16.8374-11.78614-21.07666s-7.95947-13.66961-9.64331-15.81256c-1.68359-2.14294-1.53051-6.42877-3.06128-8.26562-1.53051-1.83679-2.75512-4.439-5.35742-8.7248-2.60205-4.28588-5.051-9.33709-5.66333-9.18408s-9.64331,1.83679-22.3479,3.3675-58.47168-1.07148-61.2268-1.53071c-2.75538-.45922-14.08228-3.36749-16.2251-3.21441-2.14307.15314-9.64331,3.36755-15.91907,7.34729s-16.37817,5.3573-21.27637,11.48-7.80639,12.70459-11.78613,12.55151-1.07141-3.82666-3.0614-3.82666c-1.98975,0-7.041,2.75519-8.57178,4.439s-3.21435,7.5003-6.88794,10.40857-13.16382,6.12268-16.072,5.20428c-2.90845-.9184-1.07153-4.74506.306-7.95947s.97266-5.83319-1.8258-5.23352-6.99585,2.39856-10.59375,3.5979-8.99488,2.7984-13.792,6.3963c-4.79736,3.598-10.19409-1.39917-17.98962,5.197s-13.99194,8.19531-16.79041,8.19531-2.59838-2.39862-6.62915-3.398-4.56421,2.79834-8.16211,2.39856-16.19067,2.39862-21.18774,3.398-13.59229-1.79895-22.38721-1.19928-19.18884,3.398-25.1853,2.99829-19.78857.99945-24.386,1.39917c-4.59716.39972-12.19287-2.39862-13.99182-3.398s-13.39221-3.19818-27.1842-4.7973-27.78394-7.39569-30.78223-9.39447-4.59741-1.1994-14.99145-1.1994-66.5614-4.3974-71.95826-5.79657-28.78344-8.19531-32.58117-8.19531-25.18543-7.1958-27.98377-7.99537-5.99658-4.39746-8.19531-4.59729-8.595-2.59857-11.59326-4.7973-11.39331-4.79718-14.7915-8.19519c-3.398-3.398-9.20948-5.82715-10.58716-7.43439s-11.48023-8.2658-12.6283-11.02111-4.13293-4.82172-5.96985-5.96973-6.19934-6.19946-7.1178-5.74023-2.52563,3.21453-6.65856,9.87316-8.03626,13.5467-9.18433,18.36847-4.36255,5.0514-6.65845,8.49549c-2.29614,3.44415-12.39892,22.96069-12.16919,24.56787.22949,1.60724.22949,6.88824-2.0664,8.03625-2.29615,1.148-5.58692,9.10736-7.73,13.69941-2.14283,4.592-2.14283,17.44964-5.51026,20.81713s-7.54529,14.77326-10.89941,33.17585c-1.2937,7.09863,4.019,12.08838,6.92737,15.31555s5.66357,5.95679,6.735,7.94665,12.24536,11.327,12.24536,11.327l5.20435,3.97986c5.20422,3.97961,26.48059,19.59253,32.75635,26.78662s27.246,17.60266,36.88916,20.05176,16.53125,6.27588,20.05188,10.40869,11.17395,9.94934,16.68432,13.16357c5.51038,3.2146,10.71472,3.36768,15.30664,5.81665,4.592,2.44922,11.02088,4.28589,15.30677,5.81653a61.18787,61.18787,0,0,1,7.65332,3.36755c1.99.91834,8.87793.76539,8.87793.76539s1.22461,2.75512,6.58178,5.35742c5.35742,2.602,11.021,1.53064,12.55164,3.52051s6.27576,2.9082,10.56164,4.592c4.28589,1.68359,23.72535,5.66333,24.95,7.34716s7.34716,1.22461,9.79638,1.83667c2.449.61243,3.97974,2.75538,7.19409,3.21448,3.21436.45935,17.90882,1.83679,22.34778,3.82678,4.439,1.98975,19.2865,2.90821,32.45032,4.28589,1.7019.17823,15.91894,1.37757,18.82715.91846,2.90845-.45923,10.56164,1.22437,18.062,1.83667s33.0625,3.0614,36.79126,4.89819,9.12891,2.14307,18.77209-1.68371,11.93921-8.72486,13.46985-10.71485,8.4187-1.83679,9.49024-.15295c1.07153,1.68359,3.82666,1.98987,6.27588,1.98987,2.449,0,4.43884.30627,5.8164-1.07154,1.37769-1.37744,4.439-.61218,7.19422.30616s9.49011,2.60217,15.15368,3.97973,15.76587,1.8368,18.52112,1.07154,4.89807-1.98987,7.8064-1.98987,18.98034-3.97974,24.03161-5.05127,10.7146-1.22437,19.43946-4.13281c8.72485-2.90821,41.94043-11.17383,47.91-12.70459s11.93933-4.89808,15.766-7.34717,6.12268-.61231,9.64319-2.44922c3.52063-1.83667,9.337-5.05115,13.62293-6.88794s7.34729-4.59192,10.40869-7.34717,7.041-3.52051,7.50024-5.20434c.45923-1.6836-1.68372-1.6836-3.0614-1.37744s-3.97974.61206-1.98987-1.684a9.55544,9.55544,0,0,1,7.65344-3.52051c2.90833.1532,5.66346.45935,8.11243-1.53064,2.44922-1.98987,8.572-.45923,10.86792,1.22461s4.74512,3.06128,5.51025,1.98974c.76539-1.07129,2.90845-.91845,5.5105-2.449,2.6023-1.53076,2.6023-.91846,2.75513-7.04114.15332-6.12268,1.07153-10.40857,5.20434-13.16382s9.031,2.75525,10.86792,6.12268c1.83667,3.36768,3.06128,2.90845,5.35718,1.53076,2.29615-1.37756,18.8274-14.082,22.04175-17.29663,3.21436-3.21435,14.69458-8.87793,18.67432-11.78613s7.95947-4.13293,11.93921-8.11255,6.27563-8.57178,8.87768-12.85766c2.6023-4.28589,7.95972-5.5105,8.87793-7.50025.91846-1.99.91846-12.85766,0-19.2865C886.00757,1035.60083,881.72168,1021.21246,878.354,1013.71222Zm-511.44073,26.14716a32.564,32.564,0,0,1-9.4176,12.68225q-6.3144,5.23992-16.80109,6.67468-10.489,1.43536-24.99133-2.69422l.16345.06824a66.73306,66.73306,0,0,1,15.21088,10.3761,25.97225,25.97225,0,0,1,7.23169,11.32105,29.00372,29.00372,0,0,1,.32592,13.72155L335.282,1110.8689q-1.44159,7.36889-.77374,10.71875a6.09254,6.09254,0,0,0,3.85663,4.68066,7.6031,7.6031,0,0,0,3.8443.45093,17.37219,17.37219,0,0,0,4.46521-1.4978l1.43725,2.99939a35.20108,35.20108,0,0,1-7.89587,2.77209c-2.54327-.39819-15.55133-3.24121-12.21857-19.42554,2.25928-10.97094,4.56281-18.33911,4.15613-27.3042-.39075-8.61352-1.71582-11.64795-9.675-18.188a.16564.16564,0,0,0-.23333.23339c1.79443,2.06092,4.71557,5.21643,5.53192,9.72522,1.66552,9.19886-4.90625,22.67688-6.48651,33.60706-1.55707,10.76977,1.20513,17.36035,5.28143,20.71558a43.3631,43.3631,0,0,1-4.76489-1.68067q-9.65131-4.025-13.58826-10.46777-3.938-6.442-1.494-17.137l3.93213-17.946a114.54321,114.54321,0,0,0,2.3736-14.32385,20.30582,20.30582,0,0,0-1.30555-9.7616,11.74732,11.74732,0,0,0-6.68145-6.195l-10.87744-4.53649-16.0655,38.521q-2.62683,6.29847-2.92065,9.53516a6.41871,6.41871,0,0,0,1.79773,5.35815q2.0907,2.12055,7.633,4.71948l-1.3985,3.35328q-8.71061-4.209-25.06726-11.03052-17.91084-7.47-26.62134-10.52661l1.39844-3.35327q5.66345,2.07422,8.6427,2.06836a6.55808,6.55808,0,0,0,5.113-2.476q2.13282-2.47027,4.76068-8.7677l34.65491-83.09405q2.62629-6.29718,2.87982-9.55225a6.5655,6.5655,0,0,0-1.8385-5.37549q-2.09316-2.11953-7.55121-4.68542l1.3985-3.35321q8.30044,4.03793,25.23072,11.09869,6.705,2.79639,14.95324,6.04444,8.245,3.24765,11.43634,4.57775,23.06324,9.61863,31.60376,22.06153Q372.74506,1025.87411,366.91327,1039.85938Zm69.6817-25.7414a2.352,2.352,0,0,1,1.28955-1.52417c4.91443-2.26251,17.96845-8.27191,27.33246-11.6217,4.93524-1.76532,8.14178-2.84406,11.725-2.78223a4.7151,4.7151,0,0,1,.4873.03394,5.41438,5.41438,0,0,1,4.25269,3.55395,5.31235,5.31235,0,0,1-.72089,5.3913c-1.38116,1.62378-4.03326,3.00055-7.46783,3.87671-1.23292.31457-4.66108.9613-8.63056,1.71038-4.36584.82374-9.31433,1.75727-11.60071,2.31043-1.72839.418-3.5982.77338-5.57788,1.14972-2.27984.43359-4.63733.88159-7.16614,1.49115a3.15938,3.15938,0,0,1-3.3305-1.26233l-.24933-.35736A2.35541,2.35541,0,0,1,436.595,1014.118Zm32.56085,139.93939q-15.54932,6.65991-34.01935,4.39063-19.08618-2.34558-32.5144-11.85242a53.97181,53.97181,0,0,1-19.49066-25.20569q-6.06207-15.69835-3.5647-36.01611,2.44236-19.87573,12.41461-34.18628a58.89886,58.89886,0,0,1,25.52167-20.9696q15.54923-6.65973,34.10718-4.37952,18.99756,2.3346,32.42657,11.84131a54.263,54.263,0,0,1,19.53461,25.21142q6.10493,15.705,3.60864,36.02124-2.44263,19.87757-12.45862,34.18091A59.20245,59.20245,0,0,1,469.15582,1154.05737Zm50.72309,35.0459c-3.96314,4.2146-9.76538,6.19727-12.58228,3.56824-2.81689-2.62927-5.07056-8.26306,0-9.57776,5.07056-1.31445,9.01416-2.81689,11.83106-1.69019C521.94482,1182.53052,521.9707,1186.879,519.87891,1189.10327Zm69.549-39.07031q-33.65442,2.69129-48.6283,4.42187l-.28961-3.62158,53.53668-125.35754-20.66961,1.65283q-14.92878,1.19367-23.65723,10.4259-8.72883,9.23218-9.50366,29.56226l-4.23981.33887a117.07306,117.07306,0,0,0-.4837-13.82886q-.87572-10.9519-3.52137-27.36524,11.96686-.42333,40.76276-2.72625,35.68524-2.85352,51.54309-4.655l.28961,3.62158-50.96649,119.72156a6.223,6.223,0,0,1-2.39966-5.12671c.10089-5.05481,27.41669-66.93189,27.41669-66.93189s.4873-1.0249-.465-1.43151a1.18763,1.18763,0,0,0-1.55853.60266l-32.3548,69.32861a6.56314,6.56314,0,0,0,6.47895,9.29968l9.26971-.82116,11.09393-.887a39.16257,39.16257,0,0,0,16.74079-5.20581,34.59735,34.59735,0,0,0,12.8136-13.73681q5.08154-9.25086,5.46142-23.41626l4.24011-.33911q-.14585,5.96868.65992,16.03735a234.80827,234.80827,0,0,0,3.52172,27.36523Q621.04913,1147.50416,589.42792,1150.033Zm169.7138-53.58569q-16.79049,8.02239-24.63672,12.36059l-1.56628-3.27832q6.04129-3.1809,8.109-5.74048a5.04528,5.04528,0,0,0,.53925-5.75732q-1.18352-2.47723-5.70453-6.80066l-22.67054-22.16589-35.66009,17.03833,1.069,13.33642q1.02246,13.65363,4.23279,20.36939,2.90368,6.07726,7.64728,6.75634,4.74389.679,12.13464-2.55725l1.56634,3.2782q-11.26317,4.79205-20.538,9.22376-7.51639,3.59124-12.24371,6.43933l-1.56629-3.27832q7.50622-5.255,5.85846-23.91394l-8.42755-113.62726q2.75353-1.02072,5.79156-2.47241,3.19711-1.52757,5.5622-2.9524l88.7135,83.51606q4.75709,4.40734,8.64038,5.54553a10.00134,10.00134,0,0,0,6.67841.00073l1.56634,3.2782Q774.17334,1089.265,759.14172,1096.44727Z"/><path d="M1015.9104,910.49426c.87183-7.62915,3.36353-13.51446,1.24585-19.18182s-3.64355-7.41119-3.64355-7.41119.6538-5.01343-1.52588-7.19318-6.10328-6.97522-7.19312-9.59088-4.79541-8.71906-8.283-11.11676c-3.48779-2.39777-6.32129-7.4112-9.80908-7.4112-3.48755,0-7.84717-3.70562-8.501-5.23138s3.26953-7.19318,2.61573-9.37293c-.65406-2.17981,4.35937-5.23761,1.74365-11.11987s-5.2312-8.71588-13.51441-11.33166c-8.283-2.61567-23.10522-1.3078-29.20874-3.48761-6.10327-2.17975-4.35937-11.33472.218-16.13013,4.57764-4.79547,8.719-8.937,9.37305-17.00214.65381-8.06506-1.96192-18.74585-6.97534-21.36151s-8.719,1.08985-10.68067,4.14148c-1.96191,3.0517-8.937,6.10333-11.98877,12.20667-3.05151,6.10327-20.977,20.12878-30.4851,22.9812-9.50831,2.85248-31.377,3.32788-43.26221,4.041-11.885.71308-27.09815,6.418-39.69653,17.35236s-30.18848,22.34418-30.90149,30.90149,8.31945,13.07367,12.12292,14.26227c3.80322,1.18847,5.93384-5.14441,7.58862-6.79926s7.07056-1.50439,7.37134,1.35394-2.85815,6.31836-2.85815,7.97315,3.31469,4.15533,7.94726-.37866,9.65943-2.76,11.53223-.88715-2.75977,9.46234-3.25269,11.43366,5.32251,1.67565,13.50367,1.47851c8.1809-.19714,16.16479-3.3512,22.17724,3.0556,6.0127,6.4068,7.98389,14.11329,2.36573,18.04676-5.61841,3.93353-15.77076,8.96032-16.855,10.24176-1.084,1.28137.78858,1.47851,3.25293,1.47851,2.46387,0,4.92823.9856,4.82959,3.94257s-2.56274,10.64514-1.77417,13.20795,7.98389-2.26709,12.91211-.98572c4.92847,1.28137,8.14185,8.58166,4.08667,12.27887-4.05493,3.6972-5.48608,8.22925-3.8164,11.21087A8.48962,8.48962,0,0,0,865.636,949.787c2.98169-.954,7.63281,3.69726,4.65136,7.87146-2.98169,4.17431-3.69726,7.27514-2.38549,9.30267,1.312,2.02747,5.36694,4.17426,8.82568,2.02747s5.72461,8.34851,3.10083,11.56866-2.14673,6.55957-.23853,8.34851a8.63083,8.63083,0,0,0,10.1377,1.19269c4.05493-2.38525,9.041,2.98163,6.96533,6.321s-10.8435,11.44745-5.02832,18.48505c1.97315,2.38818,8.06494,2.61572,11.77051-2.17975s11.98877-11.11676,16.13037-12.42462a56.62866,56.62866,0,0,0,12.64258-6.10327c3.26953-2.17975,10.89868-3.0517,13.29638-3.0517s9.15479-5.01349,13.29639-5.4494,8.71924-2.83362,12.20679-6.10327,8.283-1.96179,12.42456-6.10327c4.14136-4.1416,17.874-18.30994,19.18164-22.88745,1.30811-4.57746,5.8855-.436,10.24512-1.30793,4.35937-.87182,4.57715-4.79541,4.14135-12.20654C1016.56421,929.67609,1015.03857,918.12335,1015.9104,910.49426Zm-20.58984-35.158c6.33032,1.78034,9.49511,7.71491,10.48413,12.26465.98926,4.54975-4.94531,5.14325-9.69287,2.96723s-7.71485-7.71485-7.9126-11.07776C988.00122,876.12756,991.62305,874.29639,995.32056,875.3363Zm.198,42.135c-8.11059-3.95636-17.606-13.45153-18.793-16.02319-1.18677-2.57166-.59327-6.33014,2.57177-6.73309s7.96509-1.54474,16.22119,2.18329c5.26124,2.37585,6.52784,7.31927,8.30811,10.22174s4.5498,6.59277,4.5498,10.35125S1003.62891,921.42761,995.51855,917.47131Z"/><path d="M488.62915,1081.64392l-.07025.05823a1.41644,1.41644,0,0,0-.5495.83093c-3.58453,23.95349-11.31781,38.2782-19.3913,46.844.14527-.33265.29181-.66175.43476-1.00037q5.85672-13.8772,8.1372-32.4353,2.29111-18.64509-.526-33.49976-2.81826-14.85388-9.738-23.56128-6.9213-8.70574-16.41919-9.87427-9.93988-1.22132-18.44745,5.90235-8.50865,7.12353-14.3656,21.00073-5.85681,13.87792-8.13721,32.43542-2.302,18.73371.52057,33.54407,2.82165,14.81011,9.69946,23.51172,6.87589,8.7019,16.46314,9.87952a22.3695,22.3695,0,0,0,7.83374-.39221q.22411-.04908.4494-.10425c.07629-.01929.15271-.038.22888-.05811.29224-.07568.58472-.15845.876-.25073.026-.0083.05084-.01758.07684-.02588.16962-.05322.3382-.113.5072-.17065,42.04413-13.81324,43.2981-65.04078,43.74817-71.33667a1.71873,1.71873,0,0,0-.37854-1.20215A.67255.67255,0,0,0,488.62915,1081.64392Z"/><polygon points="677.265 1078.214 710.446 1062.36 673.089 1025.9 677.265 1078.214"/><path d="M173.00085,555.82092c-7.41711,7.16132-7.67272,16.62445-10.99768,25.06458s-8.18432,15.60144-5.88256,24.80884,11.76513,14.32257,16.113,15.08984,10.90064-.02557,10.597-2.80878-9.51245-6.38281-12.70715-12.23211-2.50464-17.99793,0-25.347,10.0039-13.94836,14.20336-12.8985,5.09937,8.84894,3.29969,14.84827-7.49915,4.9494-8.399,1.34985c0,0-3.29956-.8999-3.89954,4.79944s-.6,13.19849,3.29969,16.49811c3.89941,3.29956,12.39282,3.5943,18.41479-.57788,7.93323-5.49652,11.76489-8.18439,12.53223-18.15906s2.04614-17.90326-6.26612-25.83185S180.418,548.65967,173.00085,555.82092Z"/><path d="M485.64453,660.12024c19.94043,1.82544,44.51465.983,58.69751-3.51062s23.17017-15.16589,26.3999-22.04669,5.89771-19.94031,6.3191-30.47211a176.66212,176.66212,0,0,0,0-20.13269c-.28235-2.89355-2.90467-3.4361-5.79822-3.4361s-6.23938.0904-6.6012,2.62226c-.36157,2.53192,1.53735,2.62231,2.80322,2.62231s2.44153.3617,2.44153,1.26593,0,1.899-1.8988,1.899c-1.899,0-5.33521.18091-5.33521,1.53723s.72339,2.07977,2.44141,2.07977c1.71826,0,3.52661.0904,3.52661,1.62769s-4.61157,1.35632-5.42554,1.35632c-.81372,0-1.17541.99469-1.17541,2.07977s.452,1.44684,1.44665,1.44684c.99488,0,4.06922,0,4.06922,1.35633s-.3617,3.34576-3.43616,3.16491-4.79248,2.71277-4.79248,5.33509-.54248,4.24994-1.62769,4.24994a2.8194,2.8194,0,0,1-3.07446-3.1648c0-2.80322-1.98926-8.59039-3.97876-11.39362-1.98926-2.80316-9.49463-2.35107-14.19665,1.80848s-3.43616,8.95208-3.52649,12.20739c-.09058,3.25531.09033,10.67017-6.782,10.67017s-4.97339-13.02118-8.59034-16.27649-8.5-3.16486-13.65429-2.351-7.3949,4.06909-7.85694,10.12756-.64294,13.92554-5.978,16.72864-14.19678,4.43085-18.80835-.99463c-4.61182-5.42554-8.04786-15.82446-9.67554-22.42548s-4.25-7.3244-9.766-6.87231-4.6117-.97333-4.6117-1.79779.09046-1.54791,3.79785-1.72876,5.1543-1.35639,4.97339-3.25531-1.35632-1.62763-2.35107-1.53723-5.87756,0-5.87756-1.26593.81384-2.44147,4.43078-2.44147,3.43616-.61859,3.43616-1.62048-.5426-1.81574-3.07434-1.81574c-2.532,0-3.37329-.44153-3.283-1.61706.09058-1.17554,3.00976-.39515,3.00976-2.59613,0-1.39991-2.33227-2.03241-6.779-1.20887s-4.85852,1.23523-4.94092,7.823-.90576,20.83392,4.52918,37.55042S465.70435,658.29468,485.64453,660.12024Zm66.28259-22.55573c1.20789-1.5567,2.75159-.98266,3.53772.98267s-1.96533,3.93073-3.53772,2.94812S550.30627,639.65356,551.92712,637.56451Zm-10.82849,4.103c2.16187-2.3584,3.86682-1.26971,6.09253,0,1.75928,1.0036,1.76892,4.32385,0,6.68225s-4.32373,1.1792-6.09253-.98266S538.93677,644.02594,541.09863,641.66748Z"/><path d="M239.4574,612.61389c-5.36243,3.1839-6.87049,3.1839-20.61157,3.519s-24.80091,13.40589-28.48755,16.42225-15.75183,4.52447-18.60071,5.02716c-2.84863.50274-1.84326,3.05529,2.011,6.21972s17.26,12.09992,20.27637,13.9162,7.876,4.16229,13.741,1.48108,12.56811-5.52991,22.28735-5.02722,16.75733,1.09729,24.80091-9.422S271.29639,625.517,268.28,618.98169s-7.03809-14.80219-6.87048-19.55017,6.53527-9.27252,6.20019-16.64575a13.90746,13.90746,0,0,0-7.70837-12.06531c-2.51367-1.34058-4.85962-.53058-8.04358,4.85962-2.7655,4.682-7.37317,14.74652-14.57886,18.26556s-12.23291,3.29578-15.75195,5.58588-6.53528,3.46307-6.0326,5.13885,1.34058,4.62928,6.36768,4.2417c5.02734-.38751,9.71936-.38751,13.90869-3.40387s7.03809-1.173,7.54077.16761S244.8197,609.43,239.4574,612.61389Z"/><path d="M290.79333,673.8573c4.21277-3.65106,10.67225-15.72754,12.3573-24.99561s12.61182-15.15893,5.88477-28.3623c-3.53455-6.93707-7.00806-13.48419-14.87183-11.23743s-14.60424,10.95313-16.00842,16.57013-1.96594,9.54889,0,17.13178,1.40418,21.90625-2.80847,30.89343S286.58057,677.5083,290.79333,673.8573Z"/><path d="M136.06738,622.1571c-.74731,7.17426.89673,22.41956,4.6333,32.13471s15.39478,16.8894,18.53357,23.16687A28.954,28.954,0,0,0,172.686,690.76093c5.53,2.69036,8.22045,6.128,18.98181,5.53021s13.15283-2.09253,20.92492,1.34515,17.63672,5.97852,22.27015,0,4.78283-10.61194,9.71508-12.70441,13.15283-.89678,18.38416-9.56567,6.83093-10.89117,7.89087-16.95563c1.86841-10.68975,2.52759-14.885,0-17.13177s-8.7063.28082-10.95313,5.33612-7.302,15.16583-19.94018,16.57007-17.97437-3.651-25.83814,1.96594-14.60425,11.234-21.90625,0-23.02966-9.50488-33.14013-9.10559-10.87354-7.26587-7.8639-8.58789c8.3219-3.6554,15.19715-.041,15.19715-.63886s2.541-2.5661-7.772-6.3648-11.35937-7.38587-8.071-11.27192c3.28809-3.886,12.55493,1.79358,13.60107,4.33448.89685,1.943,2.69043-1.04627,1.49463-4.78284s-10.4624-12.10657-15.24524-13.90015S136.8147,614.98285,136.06738,622.1571Z"/><path d="M323.31689,617.9754c2.48853,0,6.88025-2.635,8.92969-8.49048s1.17114-15.22436,0-20.05517-14.78515-20.93341-15.22436-25.61786,5.12353-17.27374,4.97717-21.07983-6.441-13.46766-13.02844-14.78516-20.05518.43915-27.37451,4.3916-14.63892,9.36884-15.22437,16.981-4.09888,11.711-1.46387,16.981,7.88953,7.84576,9.07593,7.02661c.543-.37482.19946-1.53406.09351-2.70069-.24878-2.73486,5.76208-10.035,9.42175-9.88861s5.85559-.43921,5.70911-2.34222.43921-10.53992,4.3916-9.808,4.83081,2.1958,3.65979,12.73571-12.29663,16.10266-16.68823,19.17682,1.61022,10.97907-1.90308,12.88214-9.6615,5.85547-9.75928,7.46576,2.879,11.85742,5.71643,13.35895,3.60376-.47681,5.65308-5.3949c2.04956-4.918,6.58752-7.5249,15.22436-7.81769s12.443,2.635,18.44483,9.808S320.82837,617.9754,323.31689,617.9754Z"/><path d="M366.95764,721.42194c5.0448-2.01795,19.92688-3.53138,25.7284-2.27015s8.82849-1.51342,5.54931-4.79254-13.9646-9.69482-38.59265-3.27911c-30.01648,7.8194-45.15088,42.08893-47.16882,45.89007s-.75672,6.07129,4.03589,5.819,27.74633-5.29706,33.29565-4.28809,12.61194,2.77466,13.36865-2.7746,4.28809-8.07171,6.05371-8.82843,4.54029-.25219,5.29712,1.76569a5.54887,5.54887,0,0,0,5.54932,3.78363c2.77453-.25226,8.07153-3.53137,9.33276-4.54035s3.27906-.25225,6.81055,2.27015c3.53125,2.5224,10.0896,2.77465,17.40454.25225s12.10742-4.03582,11.85522-9.83734-3.78369-11.35077-12.35974-13.11645-24.9718-2.2702-36.07031-2.018-14.62988,1.76569-17.40454,2.5224S361.91284,723.43988,366.95764,721.42194Z"/><path d="M877.24463,565.067c2.53662,4.12268,6.76391,6.09545,9.582,5.95452,2.81836-.14086,3.24121-5.21374,4.08643-7.891.8457-2.6773,3.523-2.25458,3.66381-5.63647a23.91693,23.91693,0,0,0-4.509-14.65485c-3.9458-5.4956-5.91846-10.99115-13.52783-12.11847-4.04224-.59887-7.46826.56366-10.991,3.3819s-6.6228,4.791-5.77734,7.46832,3.5227,3.241,5.77734,2.39551,3.66382-.2818,4.791,1.40912-.56323,3.52283-2.2544,5.63653-.282,2.616.56348,3.3512a3.53569,3.53569,0,0,0,4.509,0c1.832-1.37848,2.67749-.25116,4.08643,1.86255C878.65381,558.33942,874.70825,560.94421,877.24463,565.067Z"/><path d="M838.63477,548.47559c-3.1001,1.83184-9.51978,6.45977-11.13208,8.45471-2.19288,2.7135-1.97266,3.241-.98633,4.791s4.22729-1.26818,6.34106,0,4.50928,2.11371,3.94556,6.20014,3.1001,3.1,5.21362,3.1c2.11377,0,2.39551,2.8183,2.39551,5.63654s10.5686,12.6449,12.96411,14.07257,3.66357.44135,7.60913-2.65869a81.03757,81.03757,0,0,1,11.83667-7.75018c1.9729-.84546,3.1001-3.80463,1.40918-6.7638-1.69116-2.95917-4.93188-7.46832-16.20483-16.62762s-15.50049-11.55481-17.05054-11.55481S841.73486,546.64374,838.63477,548.47559Z"/><path d="M813.96387,723.0813c23.54809-7.68915,44.21289-29.315,41.97021-29.315s-14.898,1.9223-29.15478,1.12133c-14.25708-.801-27.71314-12.49493-30.917-22.2666s-12.97558-46.6156-18.90258-64.55707-8.49012-24.50921-16.65992-33.48-40.68847-19.8637-52.38256-20.18408c-11.69385-.32037-16.49964,1.28156-17.4607,11.85419s5.927,33.64014,8.65027,40.36816,3.80908,10.62525,5.60669,10.092c3.66284-1.08642.4314-7.43768-.23987-9.98822s1.00684-3.08746,2.34925-2.61761,2.34924,5.30237,3.02038,7.58441,1.27515,2.34918,1.94641,2.2157.73841-.135,1.27527-.94043-.53686-3.49017-1.20813-6.10785.13416-2.88611,1.34241-3.1546,1.74512.537,2.21484,3.49023,1.20825,4.02716,2.95337,3.49018,1.40943-1.87934.80542-3.49018.73828-2.282,2.282-2.215,1.20813,3.22174,2.01355,3.75866a1.72774,1.72774,0,0,0,2.55054-1.61084,2.61845,2.61845,0,0,1,2.34924-2.8861c1.27515-.06714.05372,2.7,1.17505,3.34076s4.96582-1.76215,7.36866-.96119,6.0874,9.29108,11.05322,20.3443,17.78125,50.46027,18.58227,59.1106-9.45141,13.77643-11.94946,16.33948-2.46777,4.96594,9.22607,16.0191C775.51807,729.489,790.41577,730.77051,813.96387,723.0813Z"/><path d="M141.79956,822.47467c9.54785,15.00385,30.51733,49.08856,89.219,77.57617s71.11353,33.52545,147.332,35.52246c13.64611,0,12.66149-.7843,14.449-5.02942s4.91528-8.49017,7.37305-7.59649c2.45752.89374,4.02148,7.373,5.13867,9.16046s3.35144-.67029,5.58569-3.12793,4.02173-6.92621,5.5857-13.85242,2.93554-10.94787,6.38305-12.28839,9.48011-1.78741,15.73609,5.58563,7.81982,10.501,9.60717,10.501,47.14283-19.66144,72.39-35.30121,35.52466-24.57684,38.8761-29.2688-1.60926-10.18707-8.63343-7.14959-9.68188,1.70855-10.82092.18982-1.32886-5.31556,3.41712-8.54285,2.65783-6.64447.37976-7.78351-5.69532-1.32892-10.82105,2.65778-9.1123,1.89837-10.82092,0-.56946-5.50544,4.36633-8.73273,2.84766-7.214.94922-8.16321-5.885.56958-11.20068,2.84766-9.30225-6.45459-5.50537-8.92255,1.70849-5.12573-.19-6.07495-5.50537-.56952-10.6311,3.22729-66.25464,29.04578-101.18542,33.98163-37.39881,2.27814-38.15808.56952c-.75953-1.70856,14.61767-3.41711,44.80249-11.96s77.07568-26.7677,84.09985-29.42548,7.21387-2.65777,9.30225-4.55615c2.08813-1.89843-7.21412-7.59369-9.30225-8.73272-2.08838-1.139-6.05-.49421-16.042-3.72583-18.46765-5.9729-14.16284-13.54352-12.814-15.36072,2.296-3.09326,5.885-2.93506,4.7461-4.4538-.94678-1.26239-9.501-4.62329-13.23389-6.70318a4.45833,4.45833,0,0,0-3.70239-.30488l-25.61109,9.3299c-42.53027,17.11584-117.21753,39.937-176.34509,46.16089s-102.69519-10.37323-109.95642-11.9292S132.25159,807.47083,141.79956,822.47467Z"/><path d="M811.1084,565.63593c-3.92017,1.89239-11.48975,7.56964-14.05811,10.67858-2.56811,3.10895-2.16259,4.4607-1.0813,5.13654s2.2981.13519,4.86622-1.35175c2.56835-1.48687,3.78491-1.35168,5.407.1352s3.24414,2.94543.67578,4.71685-2.43311,3.52863-1.08154,4.74518c1.3518,1.21656,3.24414.54071,5.13671-.40551,1.89234-.94623,5.00147,2.70343,3.24415,4.3255s-2.97388,2.83862-1.35181,4.3255,3.10913-.53553,3.92016,1.4895c.8108,2.025-2.4331,1.34912-.811,4.32287,1.62183,2.97382,4.866,6.79114,7.9751,10.15418,1.6792,1.81641,6.21777,4.98511,15.0039-.96246a179.31715,179.31715,0,0,0,15.54493-11.48963c1.35156-1.21655,0-4.3255-2.70362-7.16412-2.70337-2.83862-17.03149-16.22064-23.92529-21.89783S815.02832,563.74353,811.1084,565.63593Z"/></svg>