<svg id="Layer_1" data-name="Layer 1" xmlns="http://www.w3.org/2000/svg" viewBox="0 0 530.89 204.618"><defs><style>.cls-1{fill:#fff;}</style></defs><title>helpitgo-WHITE</title><path class="cls-1" d="M126.716,78.269a11.827,11.827,0,0,0-8.139,4.255,19.6,19.6,0,0,0-3.994,10.144L138.031,90.2V88.859q-.114-5.613-3.033-8.382T126.716,78.269Z" transform="translate(-0.028 -0.382)"/><path class="cls-1" d="M216.439,68.84q-7.933.832-10.906,7.23v25.92q3.087,5.94,11.024,5.105,12.075-1.269,12.074-21.1,0-8.838-3.121-13.306T216.439,68.84Z" transform="translate(-0.028 -0.382)"/><path class="cls-1" d="M332.391.472,15.213,33A16.912,16.912,0,0,0,.028,49.826v110a16.91,16.91,0,0,0,18.636,16.823l29.854-3.062a5,5,0,0,1,5.51,4.974v20.427a6,6,0,0,0,10.449,4.026L92.37,172.189a12.007,12.007,0,0,1,7.674-3.887l235.8-24.184A16.912,16.912,0,0,0,351.028,127.3V17.3A16.912,16.912,0,0,0,332.391.472ZM90.46,131.229a1.754,1.754,0,0,1-1.544,1.7l-13.769,1.448A1.363,1.363,0,0,1,73.6,133V94.5q0-5.442-2.336-7.8t-7.756-1.786q-7.407.779-10.733,6.859v43.417a1.757,1.757,0,0,1-1.543,1.706l-13.774,1.447a1.363,1.363,0,0,1-1.543-1.381V50.452a1.758,1.758,0,0,1,1.543-1.707L51.235,47.3a1.364,1.364,0,0,1,1.543,1.382V80.5q6.707-8.751,16.857-9.819Q90.169,68.523,90.46,92.35ZM154.6,98.4a1.77,1.77,0,0,1-1.554,1.719l-38.632,4.06a13.849,13.849,0,0,0,4.926,9.4q4.111,3.3,10.412,2.638a20.523,20.523,0,0,0,14.084-7.2,1.57,1.57,0,0,1,2.307-.279l6.246,6.337a1.569,1.569,0,0,1,.087,2.013,29.7,29.7,0,0,1-9.482,8.319,36.35,36.35,0,0,1-14.351,4.517q-13.88,1.457-22.6-6.144t-8.722-21.773v-1.636a40.631,40.631,0,0,1,3.674-17.386A31.411,31.411,0,0,1,111.4,70.343a31.941,31.941,0,0,1,15.372-5.668q12.949-1.36,20.386,6.022T154.6,93.073Zm23.777,23.577a1.768,1.768,0,0,1-1.554,1.717l-13.807,1.452a1.373,1.373,0,0,1-1.554-1.391V37.268a1.771,1.771,0,0,1,1.554-1.719l13.807-1.45a1.373,1.373,0,0,1,1.554,1.391ZM245.487,85.5q0,14.588-6.621,24.06a23.993,23.993,0,0,1-17.877,10.659q-9.564,1.006-15.456-5.026v28.194a1.768,1.768,0,0,1-1.555,1.717l-13.751,1.446a1.374,1.374,0,0,1-1.555-1.391V60.888a1.768,1.768,0,0,1,1.555-1.717l12.664-1.332a1.369,1.369,0,0,1,1.547,1.246l.449,4.727a22.351,22.351,0,0,1,15.984-9.027q11.664-1.225,18.143,6.726t6.473,23.118Zm24.646,26.831a1.77,1.77,0,0,1-1.554,1.718l-13.807,1.45a1.373,1.373,0,0,1-1.554-1.39V54.1a1.768,1.768,0,0,1,1.554-1.717l13.807-1.452a1.373,1.373,0,0,1,1.554,1.391Zm-1.6-71.425a10.657,10.657,0,0,1-6.858,3.17,8.785,8.785,0,0,1-6.853-1.729,7.444,7.444,0,0,1-2.593-6.03,9.2,9.2,0,0,1,2.534-6.506,10.592,10.592,0,0,1,6.912-3.173q4.321-.456,6.883,1.723a7.422,7.422,0,0,1,2.568,5.971A9.186,9.186,0,0,1,268.531,40.908Zm43.518,67.013a1.83,1.83,0,0,1-1.167,1.669,36.71,36.71,0,0,1-9.043,2.133q-17.732,1.864-18.08-16.011v-34l-7.664.807a1.375,1.375,0,0,1-1.555-1.393V51.864a1.77,1.77,0,0,1,1.555-1.719l7.664-.8V35.378a1.769,1.769,0,0,1,1.555-1.718l13.747-1.444a1.374,1.374,0,0,1,1.555,1.391V47.568l9.237-.971a1.373,1.373,0,0,1,1.555,1.39v9.261a1.769,1.769,0,0,1-1.555,1.718l-9.237.972v31.5q0,3.5,1.341,4.874t5.132.979c1.349-.142,2.577-.426,3.709-.6.776-.122,1.251-.375,1.251.462Z" transform="translate(-0.028 -0.382)"/><path class="cls-1" d="M400.564,75.567a12.477,12.477,0,0,0-9.535,5.984Q387.557,86.9,387.558,96.8q0,10.045,4.679,14.54a10.354,10.354,0,0,0,8.655,2.453q7.356-.937,10.582-6.909V80.224Q408.09,74.779,400.564,75.567Z" transform="translate(-0.028 -0.382)"/><path class="cls-1" d="M464.937,68.8a12.451,12.451,0,0,0-9.569,5.826q-3.378,5.176-3.383,15.285,0,8.994,3.383,13.4t9.683,3.744a12.646,12.646,0,0,0,9.568-5.708q3.442-5.069,3.442-15.4,0-8.826-3.442-13.312T464.937,68.8Z" transform="translate(-0.028 -0.382)"/><path class="cls-1" d="M517.663,15.144,359.184,32.291l-.025,92.26c0,9.369,0,21.861-14.053,24.983l-21.188,2.735v14.29a12,12,0,0,0,13.254,11.935l102.8-11.018a11.993,11.993,0,0,1,8.254,2.167l28.2,20.141a6,6,0,0,0,9.487-4.882V167.044a5,5,0,0,1,4.468-4.972l29.787-3.192a12,12,0,0,0,10.745-11.935V27.077A12,12,0,0,0,517.663,15.144ZM428.39,121.235a29.108,29.108,0,0,1-3.762,14.8,28.18,28.18,0,0,1-10.59,10.449,40.1,40.1,0,0,1-15.983,4.886,33.029,33.029,0,0,1-13.533-1.35,21.814,21.814,0,0,1-9.184-5.227,1.558,1.558,0,0,1-.058-1.952l5.661-8.376a1.591,1.591,0,0,1,2.35-.394,17.721,17.721,0,0,0,14.009,4.254q6.7-.7,10.437-4.681t3.737-10.574v-3.383a21.67,21.67,0,0,1-13.351,7.92c-7.727,1.41-15.517-1.057-20.341-6.617q-7.083-8.16-7.085-22.92v-.7q0-14.525,6.912-24.116A25.294,25.294,0,0,1,396.25,62.432q10.381-1.091,16.156,5.417l.539-4.634a1.778,1.778,0,0,1,1.544-1.536l12.346-1.3a1.373,1.373,0,0,1,1.555,1.391Zm58.422-11.653q-8.111,9.635-21.761,11.067t-21.787-6.46q-8.135-7.894-8.135-22.943v-.76a39.949,39.949,0,0,1,3.614-17.122A30.832,30.832,0,0,1,449.156,60.9a33.149,33.149,0,0,1,15.781-5.681q12.771-1.342,20.854,5.622T494.8,81.124l.113,4.3Q494.917,99.95,486.812,109.582Z" transform="translate(-0.028 -0.382)"/></svg>