<?xml version="1.0" encoding="utf-8"?>
<!-- Generator: Adobe Illustrator 24.2.3, SVG Export Plug-In . SVG Version: 6.00 Build 0)  -->
<svg version="1.1" id="Layer_1" xmlns="http://www.w3.org/2000/svg" xmlns:xlink="http://www.w3.org/1999/xlink" x="0px" y="0px"
	 viewBox="0 0 356.5 94.2" style="enable-background:new 0 0 356.5 94.2;" xml:space="preserve">
<style type="text/css">
	.st0{fill-rule:evenodd;clip-rule:evenodd;fill:#FFFFFF;}
</style>
<g>
	<path class="st0" d="M37.9,85.8c0,2.7-1.9,4.7-5.8,6.2c-3.9,1.4-8.4,2.2-13.4,2.2c-5.3,0-9.7-0.7-13.3-2.2S0,88.6,0,85.8V7.7
		C0,5.3,1.9,3.4,5.7,2c3.8-1.3,8.2-2,13.2-2c5.3,0,9.7,0.7,13.5,2c3.7,1.4,5.5,3.3,5.5,5.7V85.8z"/>
	<path class="st0" d="M172.7,61.9c-2.7,6.5-5.8,13.2-17.4,19.9c-14.2,8.3-32.3,12.5-54.5,12.5H69.6c-12.6,0-18.9-2.5-18.9-7.6V7.6
		c0-2.3,1.9-4.2,5.7-5.5c3.8-1.4,8.2-2,13.2-2c5.3,0,9.7,0.6,13.5,2c3.7,1.4,5.5,3.2,5.5,5.5v71.5h11.6c9.7,0,18.1-2.1,25.2-6.1
		c6.3-3.6,7.6-7.7,9.4-12l22-53.4c0.9-2.3,2-4.2,6-5.7c3.5-1.2,7.8-1.9,13-1.9c5,0,9.4,0.6,13.2,2c3.7,1.4,6.6,3.2,5.6,5.5
		L172.7,61.9z"/>
	<path class="st0" d="M356.5,85.8c0,2.7-2,4.7-5.8,6.2c-3.2,1.2-6.8,1.9-10.7,2.2c-0.4,0-1.3,0.1-2.5,0.1h-0.2H193.3
		c-4.6,0-8.4-0.9-11-2.9c-2.7-1.9-4.1-4.1-4.1-6.6c0-2.6,1.3-4.8,3.8-6.5c3-1.9,6.7-3,11.3-3h125.2V56.8H206.9
		c-10.1,0-15.1-3.2-15.1-9.4c4.5-13.6,10.2-26.6,15.7-39.8c0.9-2.3,2-4.2,6-5.7c3.5-1.2,7.8-1.9,13-1.9c1.7,0,3.4,0.1,5,0.2h108.7
		c4.7,0,8.4,0.9,11.2,2.9c2.7,1.9,4,4,4,6.6s-1.2,4.8-3.8,6.5c-2.9,1.9-6.7,3-11.4,3h-99.4l-7.5,18.2v0.3h106.9
		c7.8,0,12.6,1.9,14.4,5.6c1.3,1.1,2,2.4,2,3.8V85.8z"/>
</g>
</svg>
