<?xml version="1.0" encoding="utf-8"?>
<!-- Generator: Adobe Illustrator 24.2.3, SVG Export Plug-In . SVG Version: 6.00 Build 0)  -->
<svg version="1.1" id="Layer_1" xmlns="http://www.w3.org/2000/svg" xmlns:xlink="http://www.w3.org/1999/xlink" x="0px" y="0px"
	 viewBox="0 0 765.2 422.2" style="enable-background:new 0 0 765.2 422.2;" xml:space="preserve">
<style type="text/css">
	.st0{fill:#FFFFFF;}
	.st1{fill:#FFFFFF;}
</style>
<path class="st0" d="M28.6,170.6v-45.7h4.6v41.6h18.9v4.1H28.6z M88.6,170.6v-5.9h-0.1c-3,4.3-7.9,6.9-13.2,6.7
	c-10.1,0-18.2-7.7-18.2-17.8S65.4,136,75.3,136c5.3-0.2,10.2,2.4,13.2,6.8h0.1v-5.9h4.3v33.8L88.6,170.6z M88.8,153.7
	c0.1-7.6-6-13.8-13.6-13.9l0,0c-7.6-0.1-14,5.9-14.1,13.6c-0.1,7.6,5.9,14,13.6,14.1c7.6,0.1,14-5.9,14.1-13.6
	C88.8,153.9,88.8,153.8,88.8,153.7L88.8,153.7z M103.2,182.5v-45.7h4.3v5.9h0.1c3-4.3,7.9-6.9,13.2-6.8c10.3,0,18.2,7.8,18.2,17.7
	s-7.8,17.8-18.2,17.8c-5.2,0.1-10.2-2.4-13.2-6.7h-0.1v17.8H103.2z M120.7,139.8c-7.5,0.2-13.5,6.4-13.5,13.9
	c0.1,7.6,6.3,13.6,13.9,13.5s13.6-6.3,13.5-13.9C134.5,145.8,128.3,139.7,120.7,139.8L120.7,139.8z M177.9,170.6v-5.9h-0.1
	c-3,4.3-7.9,6.9-13.2,6.7c-10.1,0-18.2-7.7-18.2-17.8s8.3-17.7,18.2-17.7c5.3-0.2,10.2,2.4,13.2,6.8h0.1v-5.9h4.3v33.8L177.9,170.6z
	 M178.1,153.7c0.1-7.6-6-13.8-13.6-13.9l0,0c-7.6-0.1-14,5.9-14.1,13.6c-0.1,7.6,5.9,14,13.6,14.1s14-5.9,14.1-13.6
	C178.1,153.9,178.1,153.8,178.1,153.7L178.1,153.7z M160.2,132.4l-2-3.6l12.3-6.7l2,3.7L160.2,132.4z M196.5,170.6v-29.9h-7.1v-3.9
	h7.1v-11.9h4.3v11.9h8.1v3.9h-8.1v29.9H196.5z M237.1,170.6L226,157.3l-5.4,6.9v6.4h-4.3v-45.7h4.3v32.6h0.1l15.8-20.6h5.6
	L228.8,154l14,16.7L237.1,170.6z M250.9,155.3c0.4,6.7,6.5,12.2,13.1,12.2c5.3,0.1,10.1-3.1,12.1-8h4.6
	c-3.3,9.2-13.4,13.9-22.6,10.6c-9.2-3.3-13.9-13.4-10.6-22.6c2.5-7,9.1-11.6,16.5-11.7c10.1,0,17.7,8.7,17.7,18
	c0,0.4-0.1,0.9-0.1,1.3h-30.7V155.3z M277.3,151.4c-1.2-6.8-6.6-11.6-13.3-11.6c-6.6,0.1-12.2,5-13.1,11.6H277.3z M290.8,170.6
	v-33.8h4.3v4.9h0.1c1.5-3.5,4.1-5.4,9.5-5.7v4.6h-0.1c-6.2,0.6-9.6,4.7-9.6,10.1v20L290.8,170.6z M314.2,155.3
	c0.4,6.7,6.5,12.2,13.1,12.2c5.3,0.1,10.1-3.1,12.1-8h4.6c-3.3,9.2-13.4,13.9-22.6,10.6c-9.2-3.3-13.9-13.4-10.6-22.6
	c2.5-7,9.1-11.6,16.5-11.7c10.1,0,17.7,8.7,17.7,18c0,0.4-0.1,0.9-0.1,1.3L314.2,155.3z M340.6,151.4c-1.2-6.8-6.6-11.6-13.3-11.6
	c-6.6,0.1-12.2,5-13.1,11.6H340.6z M375.2,170.6l-11.1-13.3l-5.4,6.9v6.4h-4.3v-45.7h4.3v32.6h0.1l15.8-20.6h5.6L366.9,154l14,16.7
	L375.2,170.6L375.2,170.6z M389.1,155.3c0.4,6.7,6.5,12.2,13.1,12.2c5.3,0.1,10.1-3.1,12.1-8h4.6c-3.3,9.2-13.4,13.9-22.6,10.6
	s-13.9-13.4-10.6-22.6c2.5-7,9.1-11.6,16.5-11.7c10.1,0,17.7,8.7,17.7,18c0,0.4-0.1,0.9-0.1,1.3L389.1,155.3z M415.5,151.4
	c-1.2-6.8-6.6-11.6-13.3-11.6c-6.6,0.1-12.2,5-13.1,11.6H415.5z M441.9,145.2c-0.2-3.3-2.3-5.3-5.1-5.3c-2.8-0.1-5.1,2.1-5.1,4.9
	v0.1c0,2.5,1.7,4.2,5.9,5.6c8.2,2.7,9.8,6,9.8,10.8c0,6.2-4.1,10.1-10.6,10.1c-5.8,0-10.4-4.1-10.4-10.6v-0.2h4.3
	c0.1,4.5,2.4,6.9,6.1,6.9c3.9,0,6.3-2.2,6.3-6.1c0-3.3-2.1-5.1-6-6.5c-5.9-2.2-9.7-3.8-9.7-9.6c0-5.4,4.1-9.4,9.6-9.4
	c5-0.1,9.1,3.9,9.2,8.9c0,0.1,0,0.2,0,0.3L441.9,145.2z M491.1,153.7v-4.1h31c-1.1,12.5-11.6,22-24.2,21.8
	c-12.5,0-24.5-10-24.5-23.7c0-13.1,11.1-23.7,24.5-23.7c10.3,0,19,6.5,21.6,13h-5.3c-3.2-5.4-9.7-8.8-16.2-8.8
	c-10.8,0-20,8.6-20,19.6c0,11.1,9.3,19.5,20.1,19.5c8.3,0,16.4-5.6,18.5-13.5L491.1,153.7z M529.9,153.9
	c-0.1-9.8,7.7-17.8,17.5-17.9c9.8-0.1,17.8,7.7,17.9,17.5c0.1,9.8-7.7,17.8-17.5,17.9c-0.1,0-0.2,0-0.2,0
	C537.9,171.3,530.1,163.5,529.9,153.9z M560.9,153.5c0-7.5-6-13.5-13.4-13.7c-7.4,0-13.3,6.4-13.3,14c0,7.4,5.9,13.5,13.3,13.7
	C555.1,167.5,560.9,161.2,560.9,153.5z M540.7,133.9l-2.3-2.8l9.9-8.3l2.5,2.8L540.7,133.9z M551.5,133.9l-2.3-2.8l10-8.3l2.5,2.8
	L551.5,133.9z M570.8,170.6v-3.8l18.7-26.1h-18.1v-3.9h23.3v3.9l-18.5,26h19.6v3.9L570.8,170.6z M628.1,170.6v-18.8
	c0-7.6-4.6-11.9-10.5-11.9c-6.5,0-10.6,5-10.6,11.6v19.2h-4.3V125h4.3v16.2h0.1c2.4-3.4,6.3-5.3,10.4-5.2c9.3,0,14.9,6.4,14.9,15.8
	v18.8L628.1,170.6z M673.1,170.6v-5.9H673c-3,4.3-7.9,6.9-13.2,6.7c-10.1,0-18.2-7.7-18.2-17.8S650,136,659.8,136
	c5.3-0.2,10.2,2.4,13.2,6.8h0.1v-5.9h4.3v33.8L673.1,170.6z M673.4,153.7c0.1-7.6-6-13.8-13.6-13.9l0,0c-7.6-0.1-14,5.9-14.1,13.6
	c-0.1,7.6,5.9,14,13.6,14.1c7.6,0.1,14-5.9,14.1-13.6C673.4,153.9,673.4,153.8,673.4,153.7L673.4,153.7z M681,182.5v-4.3h0.1
	c3.4,0,6.7-1.6,6.7-9.3v-32.1h4.3v33.5c0,8.9-5.9,12.2-10.8,12.2L681,182.5z M687.9,132.7v-7.8h4.3v7.8H687.9z M701.3,153.9
	c-0.1-9.8,7.7-17.8,17.5-17.9c9.8-0.1,17.8,7.7,17.9,17.5c0.1,9.8-7.7,17.8-17.5,17.9c-0.1,0-0.2,0-0.2,0
	C709.3,171.3,701.6,163.5,701.3,153.9L701.3,153.9z M732.4,153.5c0-7.5-6-13.5-13.4-13.7c-7.4,0-13.3,6.4-13.3,14
	c0,7.4,5.9,13.5,13.3,13.7C726.6,167.5,732.4,161.2,732.4,153.5L732.4,153.5z M716.1,132.4l-2-3.6l12.3-6.7l2,3.7L716.1,132.4z"/>
<path class="st1" d="M33.4,54.4V80c0,12.1,9.5,15.8,9.5,15.8v2.7H0v-2.7c0,0,7.4-4.4,7.4-15.7V8.2l0,0c0-3.8-5.3-5.3-5.3-5.3V0.7
	h36.3v2.2c0,0-5.3,1.5-5.3,5.3v33.9c0,0,19.3-21.3,21.8-24.1c2.1-2.2,3.2-5.2,3-8.2c0-2.3-2.6-6.8-6.5-6.8V0.7h34v2.2
	c0,0-5.5,1.7-12.6,8.5S40.2,45.1,40.2,45.1h6.3c6,0,19.2,0.8,24.8,12.3C77,69,87.2,95.8,96.6,95.8v2.6h-37c0,0-12.5-34.4-15.9-41.8
	C40.5,49.2,33.4,49.3,33.4,54.4 M145.8,98.5V96c-2.3,0-9-4.9-9-14.9S137,15.9,137,7.7c0-4.2,4.5-4.6,4.5-4.6V0.9h-34.1v2.2
	c0,0,4.5,0.3,4.5,4.6c0,8.2,0.2,63.4,0.2,73.4s-6.7,14.9-9,14.9v2.6L145.8,98.5z M186.7,58.9c6,0,10.8,0.3,15.2,5.3
	s8.7,27.9-13.3,27.9s-28-25.3-28-25.3h-2.2l-2.3,27c0,0,10.9,4.8,32.5,4.8c18.2,0,39.2-11,39.2-32.9c0-16.8-9.9-28.6-30.1-28.6
	c-14.9,0-22.5-8.5-22.5-15.1c0-4.8,0.7-15.1,14.9-15.1C206.8,6.9,211,27,211,27h3.1l2.4-22.5c0,0-10.5-4.4-26.3-4.4s-38,9-38,30.3
	C152.2,57.4,180.7,58.9,186.7,58.9 M264.1,81V52.8c0-2.9,1.5-3.1,6.6-3.1c19,0,21.2,15.3,21.2,15.3h2.8V28.3h-2.8
	c0,11.8-16,15.4-21.4,15.4s-6.4-0.7-6.4-2.9V5.3c5.7,0,16.2-0.5,26.2,6.1c6.3,4.3,11.6,9.9,15.5,16.4h2.6c0-13-5.4-27-5.4-27h-68.4
	V3c0,0,4.5,0.3,4.5,4.6c0,8.2,0.2,63.4,0.2,73.4s-6.7,14.9-9,14.9v2.6h42.8V96C270.8,96,264.1,91,264.1,81 M396.5,95.8v2.7h-46v-2.7
	c3.7,0,8.2-3.6,8.2-7.4c0-2-1.2-4.8-2.8-9.3C354.2,74.6,349,60,349,60h-19.6c0,0-5.2,13.6-7.1,20.8c-1.9,7.3,0.4,14.9,7,14.9v2.7
	H298V96c0,0,6.4-1,13-15.1c6.6-14.2,36.6-80.2,36.6-80.2h2.5c0,0,31.9,73.8,34.6,80.2C387.5,87.3,390.2,95.8,396.5,95.8 M346.6,53.6
	l-7-20.2l-8.1,20.2H346.6z M474.2,98.5c0.3,0,0.5-0.2,0.6-0.5l7.3-33.6h-2.4c-10.4,15.9-18.9,27-32,27c-4.7,0-10.1-2.6-10.1-10.6
	c0-10,0.2-65.2,0.2-73.4c0-4.2,4.5-4.6,4.5-4.6V0.7h-34.9v2.2c0,0,4.5,0.3,4.5,4.6c0,8.2,0.2,14.8,0.2,24.8v48.6
	c0,11.8-8.1,14.9-8.1,14.9v2.7L474.2,98.5z M526.5,2.7V0.5h-41.3v2.2c0,0,7,2,7,8.7v60c0,19.5,9.5,27.1,34.6,27.1
	c27.8,0,33.6-13.7,33.6-38.2V33.2c0-22.3,8.3-30.5,13.3-30.5V0.6h-33v2.2c0,0,12.1,6,12.1,15.6V61c0,15.1-2.2,28.7-20.6,28.7
	c-14.9,0-16-12.1-16-39.5V16.3C516.2,9.8,522.4,2.7,526.5,2.7 M672.8,47.8c0,26.2-14.2,50.7-46.1,50.7h-44.2v-2.9
	c2.4,0,6.6-5.4,6.6-14.6c0-10-0.2-65.2-0.2-73.4c0-4.2-4.5-4.6-4.5-4.6V0.9h46.9C655.6,0.9,672.8,16.9,672.8,47.8 M645.6,51.1
	c0-37.3-8-45.6-21.9-45.6c-2.8-0.1-5.6,0.1-8.3,0.4c-0.3,0.1-0.6,0.3-0.6,0.7c0,9.8-0.2,64.7-0.2,74.5c0,10.4,0.8,12.2,8.6,12.2
	C629,93.2,645.6,88.7,645.6,51.1 M669.1,0.6v2.3c0,0,4.2-0.3,8.8,8.8c4.5,9.1,22.6,45.4,22.6,45.4v23.7c0,7.4-5.1,14.9-9.6,14.9v2.7
	h45.8v-2.7c0,0-9.7-3.1-9.7-14.9v-25c0,0,18-31.2,22.6-38.8S761,2.9,765.2,2.9V0.7h-33.1v2.2c0,0,6.5-0.1,6.5,10.5
	c0,5.8-15.7,34.6-15.7,34.6s-15.5-35.5-16.2-37.5c-1.9-5.2,2.8-7.6,6.2-7.6V0.7L669.1,0.6z M685.5,199.5H79.8l11.6,15.8h582.4
	L685.5,199.5z M523.2,253.2L435,229.6c-0.5,5.3-1.8,10.5-3.9,15.3l87.9,23.6C520.7,263.5,522.1,258.4,523.2,253.2z M388.5,276.1
	l23.6,88.1c5.2-1.1,10.3-2.5,15.3-4.1l-23.5-87.8C398.9,274.3,393.7,275.6,388.5,276.1z M484.2,325.3c1.9-1.9,3.6-3.9,5.3-5.9
	L425.1,255c-3.1,4.3-6.9,8-11.2,11.2l64.4,64.4C480.3,328.9,482.3,327.2,484.2,325.3z M382.6,254.7c-17.1,0-31-13.9-31-31l0,0h-13.8
	c0,24.7,20.1,44.8,44.8,44.8s44.8-20.1,44.8-44.8l0,0h-13.8C413.6,240.9,399.7,254.7,382.6,254.7L382.6,254.7z M334.1,244.9
	c-2.1-4.9-3.4-10.1-3.9-15.3L242,253.2c1.1,5.2,2.5,10.3,4.1,15.3L334.1,244.9z M549.8,260.4c2.6-12,3.9-24.3,3.9-36.6h-17.4
	c0,84.9-68.9,153.8-153.8,153.8s-153.8-68.9-153.8-153.8l0,0h-17.5c0,12.3,1.4,24.6,4,36.6l-31.2,8.3l14.2,12.6l21-5.6
	c7.5,23.5,20.1,45.2,36.8,63.4L233.1,362l18.6,3.8l15.5-15.5c18.2,16.7,39.8,29.3,63.4,36.8l-8.3,31.1l18-6l5.6-21
	c24.1,5.4,49.2,5.4,73.3,0l8.4,31.2l12.6-14.2l-5.6-21c23.5-7.5,45.2-20.1,63.4-36.8l22.9,22.9l3.8-18.6L509.1,339
	c16.7-18.2,29.2-39.8,36.7-63.4L577,284l-6-18L549.8,260.4z M376.8,276.1c-5.3-0.5-10.4-1.8-15.3-3.9L338,360c5,1.7,10.1,3,15.3,4.1
	L376.8,276.1z M286.9,330.6l64.4-64.4c-4.3-3.1-8-6.9-11.2-11.2l-64.4,64.4c1.8,2,3.4,4,5.3,5.9C282.9,327.2,285,328.9,286.9,330.6
	L286.9,330.6z M382.6,240c9,0,16.3-7.3,16.3-16.3h-32.5C366.4,232.7,373.6,240,382.6,240L382.6,240z"/>
</svg>
